<?xml version="1.0" standalone="no"?>
<!DOCTYPE svg PUBLIC "-//W3C//DTD SVG 20010904//EN"
 "http://www.w3.org/TR/2001/REC-SVG-20010904/DTD/svg10.dtd">
<svg version="1.0" xmlns="http://www.w3.org/2000/svg"
 width="2500.000000pt" height="840.000000pt" viewBox="0 0 2500.000000 840.000000"
 preserveAspectRatio="xMidYMid meet">

<g transform="translate(0.000000,840.000000) scale(0.100000,-0.100000)"
fill="#000000" stroke="none">
<path d="M2361 8390 c-69 -15 -145 -67 -240 -165 -235 -244 -416 -559 -557
-969 -114 -331 -164 -639 -164 -1006 0 -203 12 -334 40 -442 54 -208 247 -567
374 -693 167 -166 477 -305 681 -305 69 0 121 -20 131 -52 12 -38 7 -128 -10
-198 -156 -614 -537 -1010 -1056 -1097 -133 -22 -398 -22 -511 0 -220 43 -385
130 -479 252 -75 97 -130 258 -130 380 0 140 43 233 208 445 174 224 221 339
222 538 0 89 -1 95 -28 122 -16 15 -53 35 -82 44 -207 61 -451 -59 -610 -301
-103 -158 -140 -311 -140 -585 0 -754 440 -1215 1230 -1287 407 -38 888 23
1159 146 200 91 462 318 599 520 194 286 295 651 332 1208 33 496 47 2275 22
2780 -15 287 -38 498 -62 552 -16 38 -24 44 -72 57 -150 42 -740 81 -857 56z
m172 -651 c21 -5 51 -22 68 -37 29 -26 30 -30 41 -172 12 -166 5 -1293 -12
-1690 -12 -292 -24 -410 -50 -466 -16 -37 -25 -44 -62 -54 -175 -48 -389 137
-515 446 -62 151 -65 180 -70 608 -7 540 14 764 87 955 60 154 185 314 288
369 91 48 156 60 225 41z"/>
<path d="M8574 8286 c-18 -8 -34 -19 -38 -24 -17 -28 -27 -130 -36 -377 -5
-149 -21 -398 -35 -555 -14 -156 -25 -292 -25 -301 0 -14 -23 -17 -207 -22
-271 -7 -555 -53 -629 -102 -21 -14 -24 -21 -18 -48 11 -53 41 -103 81 -136
64 -53 223 -97 711 -197 l24 -5 -7 -1047 c-9 -1285 -6 -1335 95 -1625 115
-333 296 -564 522 -666 86 -39 170 -54 276 -49 79 4 94 8 156 42 122 68 278
234 386 411 24 39 72 126 107 195 75 145 112 199 123 179 4 -8 10 -36 14 -63
19 -152 231 -539 337 -616 84 -61 350 -137 509 -147 314 -18 534 153 735 572
34 72 77 168 95 214 l34 84 36 -109 c71 -217 227 -395 428 -492 72 -34 74 -35
175 -30 83 4 117 11 182 36 139 55 223 124 338 279 34 46 64 83 67 83 3 0 33
-56 68 -124 81 -162 128 -231 205 -303 109 -101 234 -154 471 -198 194 -36
269 -36 341 0 105 51 214 181 350 415 43 74 87 149 97 165 17 29 18 24 18
-260 l0 -290 -243 -240 c-134 -132 -284 -290 -333 -351 -365 -448 -596 -964
-680 -1516 -20 -133 -15 -414 10 -503 55 -201 172 -343 356 -433 190 -93 341
-121 707 -129 367 -8 404 3 526 157 244 309 265 461 302 2124 8 373 15 693 15
711 l0 33 138 4 c153 5 205 20 247 70 35 42 31 62 -21 113 -84 82 -224 135
-357 135 l-48 0 6 138 c3 75 12 348 21 606 24 749 42 881 145 1072 22 39 39
75 39 81 0 5 -44 27 -97 48 -54 21 -126 51 -160 67 l-63 28 0 363 c0 482 -7
518 -115 636 -105 113 -214 175 -443 250 -82 27 -219 79 -304 115 -196 83
-262 100 -351 93 -156 -13 -358 -158 -500 -358 -59 -83 -156 -284 -197 -409
-98 -295 -171 -744 -200 -1225 -38 -637 -82 -874 -188 -1013 -53 -69 -161
-107 -236 -82 -83 27 -158 164 -193 352 -15 76 -18 150 -18 408 0 332 5 395
51 588 27 119 30 181 10 221 -8 15 -46 56 -84 89 -105 94 -122 146 -142 437
-29 437 -73 574 -217 689 -112 88 -387 211 -603 268 -150 40 -355 50 -474 23
-381 -84 -624 -470 -755 -1199 -16 -89 -34 -206 -41 -261 -24 -212 -75 -460
-100 -491 -21 -24 -65 -160 -111 -344 -128 -501 -241 -724 -433 -849 -89 -58
-111 -56 -185 19 -42 43 -66 77 -81 118 -95 252 -114 624 -90 1687 20 883 40
1008 163 1054 47 18 251 39 492 50 507 25 562 32 579 76 8 23 -15 64 -65 114
-104 103 -200 123 -781 157 l-298 18 0 31 c1 132 23 603 36 736 27 294 29 345
10 374 -59 91 -526 210 -632 161z m5741 -2011 c76 -52 165 -145 189 -195 18
-39 21 -69 24 -238 14 -654 -132 -1532 -309 -1861 -113 -211 -311 -391 -428
-391 -67 0 -166 75 -209 156 -17 33 -50 208 -64 344 -19 190 -16 831 5 1040
31 300 60 428 141 632 65 160 138 286 218 373 58 62 85 83 155 117 162 78 195
81 278 23z m-2891 -61 c141 -48 253 -248 276 -493 10 -109 -2 -195 -40 -281
-50 -114 -88 -314 -130 -680 -71 -617 -174 -959 -339 -1126 -202 -203 -365
-191 -472 34 -66 141 -98 354 -106 707 -14 642 97 1288 269 1572 73 120 192
224 301 263 66 24 178 25 241 4z m3125 -4135 c2 -557 -20 -864 -80 -1109 -74
-301 -191 -500 -333 -566 -65 -30 -171 -33 -232 -5 -240 109 -289 625 -113
1186 106 338 301 736 476 973 29 40 102 127 161 194 l107 122 6 -230 c4 -126
7 -380 8 -565z"/>
<path d="M18453 6846 c-67 -21 -103 -49 -214 -163 -121 -124 -177 -200 -247
-333 -123 -233 -202 -527 -257 -955 -45 -356 -95 -617 -185 -971 -125 -494
-251 -784 -363 -837 -48 -23 -134 -22 -174 2 -65 40 -112 162 -132 345 -14
120 -14 614 -1 806 27 394 58 566 166 915 66 215 74 248 61 258 -9 7 -40 31
-69 54 -104 82 -250 118 -628 154 -124 12 -235 25 -247 30 -40 15 -55 62 -64
211 -13 206 -34 265 -106 289 -70 23 -282 -13 -342 -58 -86 -66 -97 -164 -81
-741 13 -446 9 -830 -10 -1017 -6 -55 -24 -183 -41 -285 -35 -211 -48 -395
-30 -428 14 -27 67 -42 103 -29 59 19 116 118 172 297 67 213 110 436 204
1065 l38 250 145 3 145 3 -3 -58 c-14 -275 -22 -828 -13 -1017 31 -682 149
-1078 388 -1301 49 -46 173 -110 240 -124 74 -15 187 -14 255 4 189 49 314
176 473 483 49 94 90 169 93 167 2 -3 27 -65 56 -139 93 -243 211 -397 360
-473 164 -84 341 -127 515 -127 166 1 230 30 363 169 134 139 251 330 357 583
39 92 60 124 60 90 0 -6 36 -84 80 -172 88 -179 146 -254 253 -329 82 -58 148
-84 238 -95 90 -11 162 -2 253 32 142 54 261 164 391 364 43 67 82 118 86 114
3 -4 14 -74 23 -157 23 -197 42 -282 81 -352 55 -100 139 -136 394 -169 311
-39 333 -2 426 721 64 502 163 972 233 1115 30 60 49 73 57 38 12 -54 25 -241
35 -508 30 -797 33 -840 66 -942 41 -124 218 -219 412 -219 110 -1 175 16 228
56 50 38 74 82 74 135 0 139 175 792 310 1155 70 190 193 495 200 495 3 0 12
-172 19 -382 29 -922 41 -1002 189 -1258 164 -283 284 -367 542 -377 207 -8
331 34 450 156 194 196 410 653 485 1024 27 132 33 275 14 324 -41 108 -138
94 -198 -29 -29 -59 -40 -98 -106 -378 -111 -473 -391 -770 -568 -602 -73 68
-115 214 -138 471 -15 178 -6 736 14 881 15 101 24 143 101 495 39 173 45 269
21 315 -18 35 -147 135 -236 184 -111 61 -203 85 -376 100 -87 8 -161 11 -165
8 -12 -13 -149 -325 -218 -497 -94 -234 -255 -668 -391 -1052 -63 -177 -115
-320 -116 -319 -2 2 -32 1360 -33 1463 0 15 -190 112 -270 138 -65 22 -168 25
-227 7 -91 -27 -200 -142 -277 -292 -73 -142 -131 -303 -247 -687 -61 -203
-114 -374 -118 -381 -13 -23 -21 194 -21 543 0 578 -22 1175 -46 1270 -10 39
-70 53 -384 90 -107 12 -197 21 -199 19 -2 -1 -9 -277 -17 -611 -18 -814 -32
-1083 -70 -1293 -48 -272 -184 -607 -299 -738 -65 -74 -110 -102 -166 -102
-42 0 -55 5 -89 36 -58 53 -98 142 -123 275 -19 102 -21 152 -21 474 -1 382 3
429 51 633 34 146 28 168 -63 249 -113 101 -124 133 -164 485 -34 298 -58 412
-109 523 -47 102 -106 156 -222 206 -46 20 -145 64 -221 97 -168 74 -268 109
-365 128 -96 18 -391 18 -450 0z m656 -646 c94 -41 165 -151 211 -330 31 -120
39 -318 16 -388 -9 -28 -23 -56 -31 -62 -28 -23 -73 -264 -100 -540 -36 -362
-94 -680 -160 -883 -100 -310 -267 -497 -444 -497 -172 0 -264 155 -318 532
-22 156 -25 717 -5 908 57 543 155 874 323 1085 78 98 181 171 276 195 59 15
173 5 232 -20z"/>
<path d="M3942 6487 c-45 -53 -146 -2216 -122 -2607 20 -336 100 -452 330
-481 81 -10 270 1 335 19 61 17 99 112 160 402 111 520 232 925 341 1143 24
48 50 87 58 87 7 0 17 -15 20 -32 4 -18 11 -222 16 -453 10 -441 22 -585 61
-711 30 -97 63 -159 116 -215 86 -92 183 -129 338 -129 161 0 289 39 417 126
101 69 135 86 157 79 10 -3 38 -31 63 -63 80 -103 221 -177 440 -231 602 -149
1253 -13 1403 292 32 66 41 142 26 222 -20 106 -54 159 -185 291 -121 120
-171 164 -426 369 -172 138 -353 299 -412 368 -110 127 -142 216 -136 371 3
86 8 110 33 161 110 228 410 327 601 198 23 -15 61 -41 83 -57 57 -40 131 -47
188 -18 59 30 177 162 215 240 32 65 33 70 33 192 -1 193 -26 251 -135 307
-90 46 -193 59 -354 44 -281 -27 -587 -113 -851 -241 -165 -80 -236 -128 -330
-224 -162 -165 -239 -398 -206 -616 15 -96 32 -150 92 -282 59 -130 61 -158
16 -201 -43 -40 -72 -118 -103 -273 -51 -256 -134 -448 -246 -570 -77 -83
-168 -107 -234 -62 -87 60 -98 152 -114 938 -13 655 -26 793 -84 909 -32 63
-122 144 -182 165 -64 22 -168 20 -219 -3 -145 -66 -343 -416 -576 -1021 -49
-125 -65 -158 -67 -135 -1 17 -6 347 -11 735 -10 766 -11 783 -66 840 -38 40
-155 96 -250 120 -89 23 -217 27 -233 7z m2770 -1899 c567 -475 738 -652 738
-764 0 -73 -43 -132 -125 -170 -41 -19 -66 -24 -138 -24 -49 0 -109 5 -135 11
-82 20 -203 83 -330 173 -67 47 -165 114 -216 147 -98 62 -126 92 -126 133 0
13 18 97 39 187 22 90 52 233 68 317 15 83 29 152 30 152 2 0 90 -73 195 -162z"/>
</g>
</svg>
