<?xml version="1.0" standalone="no"?>
<!DOCTYPE svg PUBLIC "-//W3C//DTD SVG 20010904//EN"
 "http://www.w3.org/TR/2001/REC-SVG-20010904/DTD/svg10.dtd">
<svg version="1.0" xmlns="http://www.w3.org/2000/svg"
 width="2500.000000pt" height="1154.000000pt" viewBox="0 0 2500.000000 1154.000000"
 preserveAspectRatio="xMidYMid meet">

<g transform="translate(0.000000,1154.000000) scale(0.100000,-0.100000)"
fill="#000000" stroke="none">
<path d="M5650 11533 c-1899 -37 -3653 -1007 -4705 -2603 -448 -680 -745
-1446 -875 -2260 -59 -373 -77 -679 -61 -1066 25 -641 105 -1095 291 -1654
169 -509 368 -917 664 -1365 563 -849 1315 -1514 2236 -1975 660 -331 1355
-525 2100 -585 268 -22 4542 -22 4726 -1 355 43 665 173 943 396 339 273 565
651 653 1091 l23 114 5 1865 5 1865 1394 -2199 c767 -1209 1421 -2236 1454
-2281 190 -268 477 -511 772 -655 212 -103 401 -162 650 -201 123 -20 466 -17
600 4 511 83 945 322 1283 707 213 243 395 603 463 913 50 227 49 178 49 2002
0 1063 4 1705 9 1700 6 -6 636 -998 1401 -2205 766 -1207 1416 -2229 1446
-2270 209 -289 514 -538 840 -684 299 -133 623 -196 944 -183 524 22 1004 224
1376 580 349 333 556 733 641 1237 17 99 18 376 20 4913 l3 4807 -720 0 -720
0 -2 -4767 -3 -4768 -26 -81 c-88 -282 -326 -466 -619 -481 -130 -6 -210 11
-330 69 -69 34 -101 58 -169 128 -80 81 -196 263 -2573 4010 -1369 2159 -2502
3938 -2516 3954 -41 44 -118 76 -182 76 -99 0 -196 -65 -239 -159 -14 -33 -16
-359 -16 -3776 0 -3598 -1 -3742 -18 -3800 -91 -297 -325 -486 -623 -502 -198
-11 -359 51 -499 191 -77 77 -198 266 -2579 4019 -1446 2279 -2511 3948 -2530
3964 -134 113 -331 66 -405 -96 -15 -33 -16 -362 -21 -3911 l-5 -3875 -29 -58
c-60 -121 -167 -203 -295 -227 -68 -13 -3845 -13 -4226 0 -481 16 -834 77
-1250 215 -419 139 -825 346 -1164 593 -958 699 -1583 1724 -1751 2875 -34
237 -44 377 -44 672 -1 312 11 450 60 727 315 1769 1726 3182 3489 3493 379
67 566 74 1908 75 l1017 0 -2 718 -3 717 -1070 0 c-588 1 -1126 0 -1195 -2z"/>
<path d="M10290 11534 c-528 -65 -918 -240 -1268 -569 -331 -312 -538 -689
-635 -1160 -21 -100 -21 -112 -26 -3225 l-6 -3125 -25 -50 c-18 -36 -38 -58
-74 -80 l-49 -30 -1261 -3 c-861 -2 -1302 0 -1391 8 -1083 92 -1989 905 -2204
1975 -38 188 -46 277 -46 505 1 254 15 379 70 595 232 914 971 1622 1888 1809
246 51 215 49 1467 53 l1185 3 3 726 2 725 -1227 -4 c-1096 -3 -1243 -5 -1363
-20 -831 -107 -1519 -414 -2142 -954 -359 -311 -697 -751 -921 -1199 -246
-492 -387 -1044 -404 -1584 -20 -658 110 -1286 383 -1849 107 -221 164 -320
285 -501 591 -879 1517 -1486 2549 -1669 329 -58 200 -55 2465 -59 2326 -3
2132 -9 2199 69 19 22 39 60 45 85 9 33 11 1036 11 3783 -1 3409 0 3745 15
3801 59 226 229 405 460 482 59 19 90 23 195 23 113 -1 133 -4 211 -31 105
-37 209 -105 281 -183 37 -39 853 -1316 2548 -3986 1371 -2160 2505 -3941
2518 -3957 43 -50 97 -72 182 -73 111 0 181 42 233 139 l22 41 5 3765 c4 2726
8 3773 16 3795 54 145 104 225 197 312 75 70 160 120 262 154 60 20 89 24 195
23 107 0 136 -4 205 -27 102 -34 217 -109 292 -191 41 -45 794 -1223 2548
-3987 1370 -2157 2498 -3933 2508 -3946 10 -13 40 -35 65 -51 40 -23 58 -27
122 -27 61 0 85 5 125 25 55 28 107 95 125 158 7 25 10 1578 10 4765 l0 4727
-725 0 -725 0 -2 -2656 -3 -2657 -1393 2185 c-765 1202 -1419 2221 -1451 2264
-280 376 -674 653 -1105 779 -517 149 -1086 96 -1559 -147 -616 -316 -1047
-928 -1131 -1605 -14 -110 -17 -364 -24 -1803 l-7 -1674 -1379 2164 c-759
1191 -1407 2203 -1440 2250 -192 268 -414 469 -695 628 -307 175 -625 260
-991 267 -102 2 -201 1 -220 -1z"/>
</g>
</svg>
