<?xml version="1.0" standalone="no"?>
<!DOCTYPE svg PUBLIC "-//W3C//DTD SVG 20010904//EN"
 "http://www.w3.org/TR/2001/REC-SVG-20010904/DTD/svg10.dtd">
<svg version="1.0" xmlns="http://www.w3.org/2000/svg"
 width="2500.000000pt" height="484.000000pt" viewBox="0 0 2500.000000 484.000000"
 preserveAspectRatio="xMidYMid meet">

<g transform="translate(0.000000,484.000000) scale(0.100000,-0.100000)"
fill="#000000" stroke="none">
<path d="M1645 4830 c-496 -44 -780 -225 -919 -586 -72 -187 -96 -391 -96
-805 l0 -259 -315 0 -315 0 0 -385 0 -385 315 0 315 0 2 -1167 3 -1168 470 0
470 0 3 1168 2 1167 353 0 352 0 33 343 c19 188 36 361 39 385 l6 42 -392 0
-391 0 0 308 c0 331 5 373 54 456 14 24 46 58 72 74 76 51 151 62 423 62 l241
0 0 359 0 359 -27 6 c-103 20 -567 38 -698 26z"/>
<path d="M12280 4783 c-256 -22 -466 -41 -467 -42 -2 -1 -3 -1052 -3 -2336 l0
-2335 445 0 445 0 0 233 0 232 38 -68 c127 -230 360 -387 661 -443 118 -22
358 -23 477 -1 574 105 920 516 1015 1207 9 62 14 207 14 415 0 263 -3 339
-18 430 -106 637 -425 1020 -947 1137 -92 20 -130 23 -305 22 -172 0 -211 -3
-277 -22 -116 -32 -221 -77 -301 -128 -90 -58 -220 -191 -269 -274 l-38 -64
-2 1039 -3 1040 -465 -42z m1290 -2307 c183 -63 305 -206 359 -421 55 -219 56
-645 0 -863 -72 -288 -281 -452 -574 -452 -300 0 -500 162 -577 465 -22 85
-23 108 -23 430 1 320 2 345 23 420 67 241 211 394 415 441 99 22 284 13 377
-20z"/>
<path d="M22535 4785 c-242 -24 -441 -44 -442 -44 -2 -1 -3 -1052 -3 -2336 l0
-2335 470 0 470 0 2 758 3 757 480 -757 480 -758 498 0 c273 0 497 2 497 4 0
2 -225 354 -501 782 -275 429 -498 786 -496 794 2 8 219 355 481 770 l477 755
-493 3 c-461 2 -494 1 -506 -15 -7 -10 -216 -343 -465 -740 l-452 -723 -3
1565 -2 1565 -28 -1 c-15 -1 -225 -21 -467 -44z"/>
<path d="M3535 3240 c-259 -30 -503 -137 -673 -295 -225 -208 -378 -558 -422
-960 -18 -168 -16 -650 4 -787 78 -559 343 -945 757 -1109 289 -113 680 -112
948 4 165 71 308 197 399 351 l52 90 0 -232 0 -232 450 0 450 0 0 1555 0 1555
-450 0 -450 0 -2 -232 -3 -233 -33 61 c-93 171 -255 318 -436 393 -156 65
-393 93 -591 71z m642 -760 c181 -64 299 -205 355 -426 22 -84 23 -107 23
-439 -1 -330 -2 -354 -23 -429 -88 -313 -290 -462 -603 -443 -162 10 -271 57
-371 159 -71 72 -130 188 -160 319 -20 86 -22 120 -23 404 0 328 3 358 51 507
62 189 203 321 390 362 100 22 279 15 361 -14z"/>
<path d="M7255 3240 c-816 -65 -1280 -484 -1380 -1246 -20 -154 -20 -545 0
-719 63 -536 308 -908 729 -1105 429 -202 1154 -220 1594 -41 80 32 162 78
162 90 0 10 -201 645 -205 650 -2 2 -54 -15 -114 -38 -307 -115 -601 -130
-836 -44 -133 49 -248 149 -313 271 -86 161 -125 499 -91 798 48 438 286 654
721 654 190 0 352 -30 546 -102 45 -17 84 -29 86 -27 2 2 50 150 107 328 l103
324 -30 23 c-77 62 -325 141 -530 169 -132 19 -413 26 -549 15z"/>
<path d="M9860 3243 c-30 -2 -104 -10 -165 -19 -692 -96 -1101 -504 -1190
-1187 -18 -138 -21 -561 -5 -732 38 -406 152 -681 374 -900 202 -201 439 -309
821 -376 89 -15 180 -22 355 -26 270 -6 471 10 735 58 270 48 545 139 545 178
0 8 -37 153 -81 322 l-81 307 -131 -44 c-151 -51 -306 -87 -497 -117 -196 -30
-536 -30 -666 0 -275 64 -408 225 -438 526 l-7 67 992 0 991 0 -5 383 c-4 332
-8 397 -26 496 -24 130 -84 318 -132 412 -166 330 -451 540 -841 619 -159 33
-355 44 -548 33z m345 -659 c136 -35 240 -119 297 -241 45 -96 59 -156 65
-295 l6 -128 -572 0 -571 0 0 33 c0 17 5 73 11 122 37 310 195 487 469 525 82
11 217 4 295 -16z"/>
<path d="M16615 3244 c-434 -35 -753 -170 -996 -422 -226 -233 -352 -530 -390
-920 -15 -148 -6 -531 16 -667 105 -677 519 -1095 1185 -1200 145 -23 389 -30
537 -16 619 60 1026 346 1233 865 32 81 63 196 87 321 21 107 29 566 14 719
-35 335 -132 590 -312 818 -202 257 -522 427 -902 483 -109 16 -378 26 -472
19z m372 -766 c220 -77 346 -260 382 -558 16 -126 14 -507 -3 -620 -44 -285
-174 -457 -406 -536 -44 -15 -83 -19 -195 -18 -123 1 -149 4 -211 26 -188 66
-305 203 -366 428 -22 81 -23 100 -23 435 l0 350 28 90 c77 245 221 385 440
425 94 17 274 5 354 -22z"/>
<path d="M20035 3244 c-193 -16 -389 -56 -513 -105 -237 -94 -407 -212 -546
-380 -162 -197 -257 -415 -312 -714 -22 -119 -30 -516 -15 -685 56 -612 343
-1030 846 -1231 178 -71 366 -107 610 -116 513 -19 930 121 1215 407 221 221
347 497 395 866 18 135 20 481 4 635 -74 736 -505 1198 -1214 1303 -110 17
-375 28 -470 20z m346 -758 c209 -66 337 -221 394 -476 22 -101 32 -516 16
-658 -25 -211 -78 -338 -188 -450 -109 -111 -241 -162 -418 -162 -173 0 -310
52 -415 159 -120 121 -173 265 -191 515 -15 197 -5 481 21 605 52 255 206 426
430 476 80 18 283 13 351 -9z"/>
</g>
</svg>
