<svg id="svg" version="1.1" xmlns="http://www.w3.org/2000/svg" xmlns:xlink="http://www.w3.org/1999/xlink" width="400" height="74.4" viewBox="0, 0, 400,74.4"><g id="svgg"><path id="path0" d="M364.865 0.121 C 364.562 0.159,364.273 0.297,364.223 0.428 C 364.172 0.559,363.952 0.667,363.732 0.667 C 363.513 0.667,363.333 0.742,363.333 0.833 C 363.333 0.925,363.183 1.000,363.000 1.000 C 362.817 1.000,362.667 1.075,362.667 1.167 C 362.667 1.258,362.479 1.333,362.250 1.333 C 361.991 1.333,361.833 1.428,361.833 1.583 C 361.833 1.721,361.721 1.833,361.583 1.833 C 361.394 1.833,361.333 1.630,361.333 1.000 C 361.333 0.278,361.289 0.167,361.000 0.167 C 360.815 0.167,360.667 0.278,360.667 0.417 C 360.667 0.554,360.554 0.667,360.417 0.667 C 360.279 0.667,360.167 0.742,360.167 0.833 C 360.167 0.925,360.035 1.002,359.875 1.005 C 359.563 1.011,359.000 1.376,359.000 1.572 C 359.000 1.814,358.513 2.167,358.179 2.167 C 357.983 2.167,357.833 2.275,357.833 2.417 C 357.833 2.554,357.755 2.667,357.659 2.667 C 357.433 2.667,356.667 3.433,356.667 3.659 C 356.667 3.755,356.586 3.833,356.488 3.833 C 356.257 3.833,355.833 4.257,355.833 4.488 C 355.833 4.586,355.748 4.667,355.644 4.667 C 355.369 4.667,354.667 5.534,354.667 5.875 C 354.667 6.035,354.554 6.167,354.417 6.167 C 354.279 6.167,354.167 6.252,354.167 6.356 C 354.167 6.461,353.904 6.770,353.583 7.044 C 353.262 7.318,353.000 7.683,353.000 7.855 C 353.000 8.026,352.925 8.167,352.833 8.167 C 352.742 8.167,352.667 8.279,352.667 8.417 C 352.667 8.554,352.554 8.667,352.417 8.667 C 352.278 8.667,352.167 8.815,352.167 9.000 C 352.167 9.183,352.092 9.333,352.000 9.333 C 351.908 9.333,351.833 9.438,351.833 9.566 C 351.833 9.693,351.721 9.841,351.583 9.894 C 351.446 9.946,351.333 10.125,351.333 10.291 C 351.333 10.457,351.183 10.701,351.000 10.833 C 350.817 10.965,350.667 11.245,350.667 11.453 C 350.667 11.680,350.566 11.833,350.417 11.833 C 350.261 11.833,350.167 11.991,350.167 12.250 C 350.167 12.479,350.092 12.667,350.000 12.667 C 349.908 12.667,349.833 12.809,349.833 12.982 C 349.833 13.156,349.721 13.341,349.583 13.394 C 349.446 13.446,349.333 13.642,349.333 13.828 C 349.333 14.014,349.258 14.167,349.167 14.167 C 349.075 14.167,349.000 14.279,349.000 14.417 C 349.000 14.554,348.925 14.667,348.833 14.667 C 348.742 14.667,348.667 14.809,348.667 14.982 C 348.667 15.156,348.554 15.341,348.417 15.394 C 348.279 15.446,348.167 15.642,348.167 15.828 C 348.167 16.014,348.092 16.167,348.000 16.167 C 347.908 16.167,347.833 16.421,347.833 16.732 C 347.833 17.081,347.738 17.334,347.583 17.394 C 347.446 17.446,347.333 17.642,347.333 17.828 C 347.333 18.014,347.258 18.167,347.167 18.167 C 347.075 18.167,347.000 18.354,347.000 18.583 C 347.000 18.813,346.925 19.000,346.833 19.000 C 346.742 19.000,346.667 19.188,346.667 19.417 C 346.667 19.676,346.572 19.833,346.417 19.833 C 346.242 19.833,346.167 20.009,346.167 20.417 C 346.167 20.737,346.092 21.000,346.000 21.000 C 345.908 21.000,345.833 21.179,345.833 21.399 C 345.833 21.618,345.721 21.841,345.583 21.894 C 345.446 21.946,345.333 22.142,345.333 22.328 C 345.333 22.514,345.258 22.667,345.167 22.667 C 345.075 22.667,345.000 22.929,345.000 23.250 C 345.000 23.571,344.925 23.833,344.833 23.833 C 344.742 23.833,344.667 24.096,344.667 24.417 C 344.667 24.824,344.591 25.000,344.417 25.000 C 344.261 25.000,344.167 25.157,344.167 25.417 C 344.167 25.646,344.126 25.833,344.075 25.833 C 344.025 25.833,343.810 25.646,343.598 25.417 C 343.386 25.187,343.125 25.000,343.020 25.000 C 342.914 25.000,342.573 24.738,342.261 24.417 C 341.949 24.096,341.613 23.833,341.514 23.833 C 341.415 23.833,341.333 23.755,341.333 23.659 C 341.333 23.433,340.567 22.667,340.341 22.667 C 340.245 22.667,340.167 22.554,340.167 22.417 C 340.167 22.275,340.017 22.167,339.821 22.167 C 339.452 22.167,339.000 21.806,339.000 21.512 C 339.000 21.414,338.887 21.333,338.750 21.333 C 338.612 21.333,338.500 21.258,338.500 21.167 C 338.500 21.075,338.350 21.000,338.167 21.000 C 337.983 21.000,337.833 20.925,337.833 20.833 C 337.833 20.742,337.721 20.667,337.583 20.667 C 337.446 20.667,337.333 20.554,337.333 20.417 C 337.333 20.279,337.188 20.167,337.010 20.167 C 336.832 20.167,336.640 20.092,336.583 20.000 C 336.527 19.908,336.335 19.833,336.157 19.833 C 335.979 19.833,335.833 19.721,335.833 19.583 C 335.833 19.428,335.676 19.333,335.417 19.333 C 335.188 19.333,335.000 19.258,335.000 19.167 C 335.000 19.075,334.813 19.000,334.583 19.000 C 334.354 19.000,334.167 18.925,334.167 18.833 C 334.167 18.742,333.979 18.667,333.750 18.667 C 333.491 18.667,333.333 18.572,333.333 18.417 C 333.333 18.278,333.185 18.167,333.000 18.167 C 332.817 18.167,332.667 18.092,332.667 18.000 C 332.667 17.908,332.479 17.833,332.250 17.833 C 331.991 17.833,331.833 17.739,331.833 17.583 C 331.833 17.428,331.676 17.333,331.417 17.333 C 331.188 17.333,331.000 17.258,331.000 17.167 C 331.000 17.075,330.813 17.000,330.583 17.000 C 330.354 17.000,330.167 16.925,330.167 16.833 C 330.167 16.742,329.979 16.667,329.750 16.667 C 329.491 16.667,329.333 16.572,329.333 16.417 C 329.333 16.278,329.185 16.167,329.000 16.167 C 328.817 16.167,328.667 16.092,328.667 16.000 C 328.667 15.908,328.479 15.833,328.250 15.833 C 327.991 15.833,327.833 15.739,327.833 15.583 C 327.833 15.428,327.676 15.333,327.417 15.333 C 327.188 15.333,327.000 15.258,327.000 15.167 C 327.000 15.075,326.813 15.000,326.583 15.000 C 326.354 15.000,326.167 14.925,326.167 14.833 C 326.167 14.742,325.979 14.667,325.750 14.667 C 325.491 14.667,325.333 14.572,325.333 14.417 C 325.333 14.242,325.157 14.167,324.750 14.167 C 324.429 14.167,324.167 14.092,324.167 14.000 C 324.167 13.908,323.979 13.833,323.750 13.833 C 323.491 13.833,323.333 13.739,323.333 13.583 C 323.333 13.428,323.176 13.333,322.917 13.333 C 322.688 13.333,322.500 13.258,322.500 13.167 C 322.500 13.075,322.237 13.000,321.917 13.000 C 321.596 13.000,321.333 12.925,321.333 12.833 C 321.333 12.742,321.191 12.667,321.018 12.667 C 320.844 12.667,320.659 12.554,320.606 12.417 C 320.554 12.279,320.358 12.167,320.172 12.167 C 319.986 12.167,319.833 12.092,319.833 12.000 C 319.833 11.908,319.579 11.833,319.268 11.833 C 318.919 11.833,318.666 11.738,318.606 11.583 C 318.554 11.446,318.358 11.333,318.172 11.333 C 317.986 11.333,317.833 11.258,317.833 11.167 C 317.833 11.075,317.571 11.000,317.250 11.000 C 316.929 11.000,316.667 10.925,316.667 10.833 C 316.667 10.742,316.479 10.667,316.250 10.667 C 315.991 10.667,315.833 10.572,315.833 10.417 C 315.833 10.242,315.657 10.167,315.250 10.167 C 314.929 10.167,314.667 10.092,314.667 10.000 C 314.667 9.908,314.487 9.833,314.268 9.833 C 314.048 9.833,313.826 9.721,313.773 9.583 C 313.717 9.437,313.467 9.333,313.172 9.333 C 312.894 9.333,312.667 9.258,312.667 9.167 C 312.667 9.075,312.479 9.000,312.250 9.000 C 312.021 9.000,311.833 8.925,311.833 8.833 C 311.833 8.742,311.579 8.667,311.268 8.667 C 310.919 8.667,310.666 8.571,310.606 8.417 C 310.546 8.260,310.291 8.167,309.922 8.167 C 309.598 8.167,309.333 8.092,309.333 8.000 C 309.333 7.908,308.996 7.833,308.583 7.833 L 307.833 7.833 307.833 9.157 C 307.833 9.885,307.908 10.527,308.000 10.583 C 308.092 10.640,308.167 11.094,308.167 11.593 C 308.167 12.288,308.225 12.500,308.417 12.500 C 308.597 12.500,308.667 12.685,308.667 13.167 C 308.667 13.533,308.742 13.833,308.833 13.833 C 308.925 13.833,309.000 13.983,309.000 14.167 C 309.000 14.350,309.075 14.500,309.167 14.500 C 309.258 14.500,309.333 14.652,309.333 14.839 C 309.333 15.025,309.446 15.220,309.583 15.273 C 309.721 15.326,309.833 15.473,309.833 15.601 C 309.833 15.729,309.908 15.833,310.000 15.833 C 310.092 15.833,310.167 15.983,310.167 16.167 C 310.167 16.352,310.278 16.500,310.417 16.500 C 310.554 16.500,310.667 16.596,310.667 16.713 C 310.667 16.830,310.817 17.035,311.000 17.167 C 311.183 17.299,311.333 17.503,311.333 17.620 C 311.333 17.737,311.429 17.833,311.547 17.833 C 311.664 17.833,311.868 17.983,312.000 18.167 C 312.132 18.350,312.336 18.500,312.453 18.500 C 312.571 18.500,312.667 18.578,312.667 18.673 C 312.667 18.955,313.950 20.167,314.249 20.167 C 314.559 20.167,315.000 20.551,315.000 20.821 C 315.000 20.920,315.188 21.000,315.417 21.000 C 315.646 21.000,315.833 21.075,315.833 21.167 C 315.833 21.265,315.250 21.333,314.417 21.333 C 313.269 21.333,313.000 21.381,313.000 21.583 C 313.000 21.776,312.786 21.833,312.071 21.833 C 311.489 21.833,311.054 21.922,310.905 22.071 C 310.634 22.342,310.574 23.833,310.833 23.833 C 310.925 23.833,311.000 24.171,311.000 24.583 C 311.000 24.996,311.075 25.333,311.167 25.333 C 311.258 25.333,311.333 25.486,311.333 25.672 C 311.333 25.858,311.446 26.054,311.583 26.106 C 311.721 26.159,311.833 26.350,311.833 26.530 C 311.833 26.884,312.200 27.333,312.488 27.333 C 312.586 27.333,312.667 27.504,312.667 27.713 C 312.667 27.922,312.817 28.201,313.000 28.333 C 313.183 28.465,313.333 28.670,313.333 28.787 C 313.333 28.904,313.414 29.000,313.512 29.000 C 313.743 29.000,314.167 29.424,314.167 29.655 C 314.167 29.753,314.263 29.833,314.380 29.833 C 314.497 29.833,314.701 29.983,314.833 30.167 C 314.965 30.350,315.245 30.500,315.453 30.500 C 315.662 30.500,315.833 30.580,315.833 30.679 C 315.833 30.973,316.286 31.333,316.655 31.333 C 316.851 31.333,317.000 31.442,317.000 31.583 C 317.000 31.739,317.157 31.833,317.417 31.833 C 317.646 31.833,317.833 31.908,317.833 32.000 C 317.833 32.092,318.021 32.167,318.250 32.167 C 318.479 32.167,318.667 32.242,318.667 32.333 C 318.667 32.425,318.929 32.500,319.250 32.500 C 319.761 32.500,319.833 32.552,319.833 32.917 C 319.833 33.282,319.761 33.333,319.250 33.333 C 318.843 33.333,318.667 33.409,318.667 33.583 C 318.667 33.755,318.494 33.833,318.115 33.833 C 317.793 33.833,317.414 33.972,317.205 34.167 C 317.008 34.350,316.779 34.500,316.695 34.500 C 315.785 34.500,314.937 36.580,315.583 37.226 C 315.721 37.364,315.833 37.557,315.833 37.655 C 315.833 37.753,315.908 37.833,316.000 37.833 C 316.092 37.833,316.167 37.983,316.167 38.167 C 316.167 38.352,316.278 38.500,316.417 38.500 C 316.554 38.500,316.667 38.579,316.667 38.675 C 316.667 38.993,318.311 40.500,318.659 40.500 C 318.846 40.500,319.000 40.580,319.000 40.679 C 319.000 40.967,319.450 41.333,319.804 41.333 C 319.984 41.333,320.174 41.446,320.227 41.583 C 320.280 41.721,320.475 41.833,320.661 41.833 C 320.848 41.833,321.000 41.908,321.000 42.000 C 321.000 42.092,321.188 42.167,321.417 42.167 C 321.646 42.167,321.833 42.242,321.833 42.333 C 321.833 42.425,322.088 42.500,322.399 42.500 C 322.748 42.500,323.001 42.596,323.060 42.750 C 323.137 42.950,323.505 43.000,324.911 43.000 C 325.970 43.000,326.667 43.066,326.667 43.167 C 326.667 43.258,326.554 43.333,326.417 43.333 C 326.279 43.333,326.167 43.414,326.167 43.512 C 326.167 43.706,325.756 44.167,325.583 44.167 C 325.410 44.167,325.000 44.627,325.000 44.821 C 325.000 44.920,324.925 45.000,324.833 45.000 C 324.742 45.000,324.667 45.188,324.667 45.417 C 324.667 45.676,324.572 45.833,324.417 45.833 C 324.212 45.833,324.167 46.120,324.167 47.417 C 324.167 48.713,324.212 49.000,324.417 49.000 C 324.557 49.000,324.667 49.149,324.667 49.341 C 324.667 49.696,325.355 50.500,325.659 50.500 C 325.755 50.500,325.833 50.580,325.833 50.679 C 325.833 50.967,326.283 51.333,326.637 51.333 C 326.817 51.333,327.008 51.446,327.060 51.583 C 327.113 51.721,327.309 51.833,327.495 51.833 C 327.681 51.833,327.833 51.908,327.833 52.000 C 327.833 52.099,328.472 52.167,329.417 52.167 C 330.361 52.167,331.000 52.234,331.000 52.333 C 331.000 52.425,330.925 52.500,330.833 52.500 C 330.742 52.500,330.667 52.612,330.667 52.750 C 330.667 52.887,330.554 53.000,330.417 53.000 C 330.279 53.000,330.167 53.075,330.167 53.167 C 330.167 53.258,330.053 53.333,329.914 53.333 C 329.775 53.333,329.406 53.596,329.094 53.917 C 328.783 54.237,328.447 54.500,328.347 54.500 C 328.248 54.500,328.167 54.612,328.167 54.750 C 328.167 54.887,328.035 55.002,327.875 55.005 C 327.515 55.012,327.000 55.387,327.000 55.643 C 327.000 55.748,326.829 55.833,326.620 55.833 C 326.411 55.833,326.132 55.983,326.000 56.167 C 325.868 56.350,325.589 56.500,325.380 56.500 C 325.153 56.500,325.000 56.601,325.000 56.750 C 325.000 56.906,324.843 57.000,324.583 57.000 C 324.354 57.000,324.167 57.075,324.167 57.167 C 324.167 57.258,324.026 57.333,323.854 57.333 C 323.682 57.333,323.447 57.446,323.333 57.583 C 323.219 57.721,322.910 57.833,322.646 57.833 C 322.382 57.833,322.167 57.908,322.167 58.000 C 322.167 58.092,321.979 58.167,321.750 58.167 C 321.521 58.167,321.333 58.242,321.333 58.333 C 321.333 58.425,321.106 58.500,320.828 58.500 C 320.533 58.500,320.283 58.604,320.227 58.750 C 320.168 58.904,319.914 59.000,319.566 59.000 C 319.254 59.000,319.000 59.075,319.000 59.167 C 319.000 59.258,318.667 59.333,318.260 59.333 C 317.853 59.333,317.473 59.408,317.417 59.500 C 317.360 59.592,316.873 59.667,316.335 59.667 C 315.688 59.667,315.273 59.751,315.107 59.917 C 314.802 60.222,308.737 60.294,308.637 59.994 C 308.605 59.898,308.036 59.775,307.373 59.719 C 306.709 59.664,306.167 59.554,306.167 59.476 C 306.167 59.397,305.834 59.333,305.427 59.333 C 305.019 59.333,304.640 59.258,304.583 59.167 C 304.527 59.075,304.222 59.000,303.907 59.000 C 303.508 59.000,303.333 58.924,303.333 58.750 C 303.333 58.575,303.157 58.500,302.750 58.500 C 302.429 58.500,302.167 58.425,302.167 58.333 C 302.167 58.242,301.904 58.167,301.583 58.167 C 301.262 58.167,301.000 58.092,301.000 58.000 C 301.000 57.908,300.848 57.833,300.661 57.833 C 300.475 57.833,300.280 57.721,300.227 57.583 C 300.174 57.446,299.952 57.333,299.732 57.333 C 299.513 57.333,299.333 57.258,299.333 57.167 C 299.333 57.075,299.191 57.000,299.018 57.000 C 298.844 57.000,298.659 56.887,298.606 56.750 C 298.554 56.612,298.358 56.500,298.172 56.500 C 297.986 56.500,297.833 56.425,297.833 56.333 C 297.833 56.242,297.664 56.167,297.456 56.167 C 297.249 56.167,296.939 55.979,296.766 55.750 C 296.594 55.521,296.314 55.333,296.143 55.333 C 295.973 55.333,295.833 55.258,295.833 55.167 C 295.833 55.075,295.721 55.000,295.583 55.000 C 295.446 55.000,295.333 54.920,295.333 54.821 C 295.333 54.551,294.893 54.167,294.583 54.167 C 294.274 54.167,293.833 53.782,293.833 53.512 C 293.833 53.414,293.753 53.333,293.655 53.333 C 293.424 53.333,293.000 52.909,293.000 52.679 C 293.000 52.580,292.737 52.500,292.417 52.500 C 291.906 52.500,291.833 52.552,291.833 52.917 C 291.833 53.146,291.908 53.333,292.000 53.333 C 292.092 53.333,292.167 53.473,292.167 53.643 C 292.167 53.814,292.354 54.094,292.583 54.266 C 292.813 54.438,293.000 54.642,293.000 54.718 C 293.000 54.917,293.443 55.333,293.655 55.333 C 293.753 55.333,293.833 55.489,293.833 55.679 C 293.833 56.048,294.194 56.500,294.488 56.500 C 294.586 56.500,294.667 56.578,294.667 56.674 C 294.667 56.900,295.433 57.667,295.659 57.667 C 295.755 57.667,295.833 57.747,295.833 57.845 C 295.833 58.076,296.257 58.500,296.488 58.500 C 296.586 58.500,296.667 58.578,296.667 58.674 C 296.667 58.900,297.433 59.667,297.659 59.667 C 297.755 59.667,297.833 59.747,297.833 59.845 C 297.833 60.076,298.257 60.500,298.488 60.500 C 298.586 60.500,298.667 60.578,298.667 60.674 C 298.667 60.900,299.433 61.667,299.659 61.667 C 299.755 61.667,299.833 61.747,299.833 61.845 C 299.833 62.068,300.254 62.500,300.470 62.500 C 300.559 62.500,300.674 62.612,300.727 62.750 C 300.780 62.887,300.938 63.000,301.078 63.000 C 301.218 63.000,301.333 63.075,301.333 63.167 C 301.333 63.258,301.414 63.333,301.512 63.333 C 301.743 63.333,302.167 63.757,302.167 63.988 C 302.167 64.086,302.279 64.167,302.417 64.167 C 302.554 64.167,302.667 64.242,302.667 64.333 C 302.667 64.425,302.783 64.500,302.925 64.500 C 303.067 64.500,303.356 64.688,303.569 64.917 C 303.781 65.146,304.083 65.333,304.239 65.333 C 304.557 65.333,305.000 65.714,305.000 65.988 C 305.000 66.086,305.170 66.167,305.377 66.167 C 305.585 66.167,305.895 66.354,306.067 66.583 C 306.239 66.812,306.485 67.000,306.614 67.000 C 306.742 67.000,307.008 67.150,307.205 67.333 C 307.402 67.517,307.699 67.667,307.865 67.667 C 308.031 67.667,308.167 67.779,308.167 67.917 C 308.167 68.072,308.324 68.167,308.583 68.167 C 308.813 68.167,309.000 68.242,309.000 68.333 C 309.000 68.425,309.188 68.500,309.417 68.500 C 309.676 68.500,309.833 68.594,309.833 68.750 C 309.833 68.906,309.991 69.000,310.250 69.000 C 310.479 69.000,310.667 69.075,310.667 69.167 C 310.667 69.258,310.817 69.333,311.000 69.333 C 311.183 69.333,311.333 69.408,311.333 69.500 C 311.333 69.592,311.521 69.667,311.750 69.667 C 312.009 69.667,312.167 69.761,312.167 69.917 C 312.167 70.072,312.324 70.167,312.583 70.167 C 312.813 70.167,313.000 70.242,313.000 70.333 C 313.000 70.425,313.262 70.500,313.583 70.500 C 313.991 70.500,314.167 70.575,314.167 70.750 C 314.167 70.906,314.324 71.000,314.583 71.000 C 314.813 71.000,315.000 71.075,315.000 71.167 C 315.000 71.258,315.262 71.333,315.583 71.333 C 315.904 71.333,316.167 71.408,316.167 71.500 C 316.167 71.592,316.421 71.667,316.732 71.667 C 317.081 71.667,317.334 71.762,317.394 71.917 C 317.454 72.074,317.709 72.167,318.078 72.167 C 318.402 72.167,318.667 72.242,318.667 72.333 C 318.667 72.425,318.897 72.500,319.179 72.500 C 319.460 72.500,319.803 72.613,319.940 72.750 C 320.078 72.888,320.485 73.000,320.845 73.000 C 321.205 73.000,321.500 73.075,321.500 73.167 C 321.500 73.258,321.912 73.333,322.417 73.333 C 322.921 73.333,323.333 73.408,323.333 73.500 C 323.333 73.592,323.756 73.667,324.273 73.667 C 324.963 73.667,325.268 73.742,325.419 73.948 C 325.835 74.517,345.333 74.468,345.333 73.899 C 345.333 73.721,345.626 73.667,346.583 73.667 C 347.306 73.667,347.833 73.596,347.833 73.500 C 347.833 73.408,348.241 73.333,348.740 73.333 C 349.239 73.333,349.693 73.258,349.750 73.167 C 349.807 73.075,350.151 73.000,350.515 73.000 C 350.950 73.000,351.210 72.914,351.273 72.750 C 351.336 72.587,351.595 72.500,352.018 72.500 C 352.375 72.500,352.667 72.425,352.667 72.333 C 352.667 72.242,353.004 72.167,353.417 72.167 C 353.972 72.167,354.167 72.102,354.167 71.917 C 354.167 71.742,354.343 71.667,354.750 71.667 C 355.071 71.667,355.333 71.592,355.333 71.500 C 355.333 71.408,355.521 71.333,355.750 71.333 C 355.979 71.333,356.167 71.258,356.167 71.167 C 356.167 71.075,356.429 71.000,356.750 71.000 C 357.157 71.000,357.333 70.925,357.333 70.750 C 357.333 70.575,357.509 70.500,357.917 70.500 C 358.238 70.500,358.500 70.425,358.500 70.333 C 358.500 70.242,358.688 70.167,358.917 70.167 C 359.176 70.167,359.333 70.072,359.333 69.917 C 359.333 69.761,359.491 69.667,359.750 69.667 C 359.979 69.667,360.167 69.592,360.167 69.500 C 360.167 69.408,360.429 69.333,360.750 69.333 C 361.071 69.333,361.333 69.258,361.333 69.167 C 361.333 69.075,361.521 69.000,361.750 69.000 C 362.009 69.000,362.167 68.906,362.167 68.750 C 362.167 68.594,362.324 68.500,362.583 68.500 C 362.813 68.500,363.000 68.425,363.000 68.333 C 363.000 68.242,363.152 68.167,363.339 68.167 C 363.525 68.167,363.720 68.054,363.773 67.917 C 363.826 67.779,363.997 67.667,364.153 67.667 C 364.309 67.667,364.598 67.517,364.795 67.333 C 364.992 67.150,365.306 67.000,365.493 67.000 C 365.684 67.000,365.833 66.891,365.833 66.750 C 365.833 66.612,365.979 66.500,366.157 66.500 C 366.335 66.500,366.527 66.425,366.583 66.333 C 366.640 66.242,366.832 66.167,367.010 66.167 C 367.188 66.167,367.333 66.054,367.333 65.917 C 367.333 65.779,367.446 65.667,367.583 65.667 C 367.721 65.667,367.833 65.592,367.833 65.500 C 367.833 65.408,367.983 65.333,368.167 65.333 C 368.350 65.333,368.500 65.258,368.500 65.167 C 368.500 65.075,368.613 65.000,368.750 65.000 C 368.887 65.000,369.000 64.887,369.000 64.750 C 369.000 64.608,369.149 64.500,369.345 64.500 C 369.714 64.500,370.167 64.139,370.167 63.845 C 370.167 63.747,370.279 63.667,370.417 63.667 C 370.554 63.667,370.667 63.592,370.667 63.500 C 370.667 63.408,370.817 63.333,371.000 63.333 C 371.183 63.333,371.333 63.258,371.333 63.167 C 371.333 63.075,371.446 63.000,371.583 63.000 C 371.721 63.000,371.833 62.920,371.833 62.821 C 371.833 62.527,372.286 62.167,372.655 62.167 C 372.845 62.167,373.000 62.086,373.000 61.988 C 373.000 61.794,373.410 61.333,373.583 61.333 C 373.756 61.333,374.167 60.873,374.167 60.679 C 374.167 60.580,374.247 60.500,374.345 60.500 C 374.539 60.500,375.000 60.090,375.000 59.917 C 375.000 59.778,375.444 59.333,375.583 59.333 C 375.756 59.333,376.167 58.873,376.167 58.679 C 376.167 58.580,376.247 58.500,376.345 58.500 C 376.539 58.500,377.000 58.090,377.000 57.917 C 377.000 57.778,377.444 57.333,377.583 57.333 C 377.756 57.333,378.167 56.873,378.167 56.679 C 378.167 56.580,378.247 56.500,378.345 56.500 C 378.557 56.500,379.000 56.083,379.000 55.885 C 379.000 55.808,379.188 55.605,379.417 55.433 C 379.646 55.261,379.833 55.013,379.833 54.881 C 379.833 54.633,380.222 54.167,380.428 54.167 C 380.624 54.167,380.989 53.604,380.995 53.292 C 380.998 53.131,381.075 53.000,381.167 53.000 C 381.258 53.000,381.333 52.887,381.333 52.750 C 381.333 52.612,381.414 52.500,381.512 52.500 C 381.806 52.500,382.167 52.048,382.167 51.679 C 382.167 51.483,382.275 51.333,382.417 51.333 C 382.566 51.333,382.667 51.180,382.667 50.953 C 382.667 50.745,382.817 50.465,383.000 50.333 C 383.183 50.201,383.333 49.922,383.333 49.713 C 383.333 49.487,383.434 49.333,383.583 49.333 C 383.739 49.333,383.833 49.176,383.833 48.917 C 383.833 48.688,383.908 48.500,384.000 48.500 C 384.092 48.500,384.167 48.358,384.167 48.184 C 384.167 48.011,384.279 47.826,384.417 47.773 C 384.554 47.720,384.667 47.525,384.667 47.339 C 384.667 47.152,384.742 47.000,384.833 47.000 C 384.925 47.000,385.000 46.813,385.000 46.583 C 385.000 46.354,385.075 46.167,385.167 46.167 C 385.258 46.167,385.333 45.979,385.333 45.750 C 385.333 45.491,385.428 45.333,385.583 45.333 C 385.739 45.333,385.833 45.176,385.833 44.917 C 385.833 44.688,385.908 44.500,386.000 44.500 C 386.092 44.500,386.167 44.246,386.167 43.934 C 386.167 43.586,386.262 43.332,386.417 43.273 C 386.563 43.217,386.667 42.967,386.667 42.672 C 386.667 42.394,386.742 42.167,386.833 42.167 C 386.925 42.167,387.000 41.904,387.000 41.583 C 387.000 41.262,387.075 41.000,387.167 41.000 C 387.258 41.000,387.333 40.625,387.333 40.167 L 387.333 39.333 389.750 39.333 C 391.250 39.333,392.167 39.270,392.167 39.167 C 392.167 39.075,392.507 39.000,392.922 39.000 C 393.439 39.000,393.707 38.921,393.773 38.750 C 393.832 38.596,394.086 38.500,394.434 38.500 C 394.746 38.500,395.000 38.425,395.000 38.333 C 395.000 38.242,395.188 38.167,395.417 38.167 C 395.646 38.167,395.833 38.092,395.833 38.000 C 395.833 37.908,395.986 37.833,396.172 37.833 C 396.358 37.833,396.554 37.721,396.606 37.583 C 396.659 37.446,396.844 37.333,397.018 37.333 C 397.191 37.333,397.333 37.258,397.333 37.167 C 397.333 37.075,397.446 37.000,397.583 37.000 C 397.721 37.000,397.833 36.887,397.833 36.750 C 397.833 36.609,397.982 36.500,398.174 36.500 C 398.529 36.500,399.333 35.811,399.333 35.508 C 399.333 35.412,399.438 35.333,399.566 35.333 C 399.846 35.333,400.000 34.974,400.000 34.320 C 400.000 33.890,399.941 33.833,399.500 33.833 C 399.225 33.833,399.000 33.908,399.000 34.000 C 399.000 34.103,398.083 34.167,396.583 34.167 C 395.083 34.167,394.167 34.103,394.167 34.000 C 394.167 33.902,393.583 33.833,392.750 33.833 C 391.602 33.833,391.333 33.786,391.333 33.583 C 391.333 33.426,391.175 33.333,390.907 33.333 C 390.665 33.333,390.525 33.261,390.583 33.167 C 390.640 33.075,391.097 33.000,391.598 33.000 C 392.255 33.000,392.537 32.930,392.606 32.750 C 392.672 32.580,392.937 32.500,393.434 32.500 C 393.837 32.500,394.167 32.425,394.167 32.333 C 394.167 32.242,394.354 32.167,394.583 32.167 C 394.813 32.167,395.000 32.092,395.000 32.000 C 395.000 31.908,395.188 31.833,395.417 31.833 C 395.676 31.833,395.833 31.739,395.833 31.583 C 395.833 31.428,395.991 31.333,396.250 31.333 C 396.479 31.333,396.667 31.258,396.667 31.167 C 396.667 31.075,396.817 31.000,397.000 31.000 C 397.185 31.000,397.333 30.889,397.333 30.750 C 397.333 30.613,397.412 30.500,397.508 30.500 C 397.826 30.500,399.333 28.855,399.333 28.508 C 399.333 28.316,399.443 28.167,399.583 28.167 C 399.956 28.167,399.934 26.695,399.559 26.551 C 399.397 26.489,399.203 26.559,399.083 26.723 C 398.968 26.879,398.652 27.000,398.357 27.000 C 398.069 27.000,397.833 27.075,397.833 27.167 C 397.833 27.258,397.493 27.333,397.078 27.333 C 396.561 27.333,396.293 27.412,396.227 27.583 C 396.146 27.795,395.581 27.833,392.566 27.833 C 389.507 27.833,389.000 27.798,389.000 27.583 C 389.000 27.398,388.804 27.333,388.238 27.333 C 387.269 27.333,387.000 27.064,387.000 26.095 C 387.000 25.676,386.925 25.333,386.833 25.333 C 386.742 25.333,386.667 24.996,386.667 24.583 C 386.667 24.028,386.602 23.833,386.417 23.833 C 386.242 23.833,386.167 23.657,386.167 23.250 C 386.167 22.929,386.092 22.667,386.000 22.667 C 385.908 22.667,385.833 22.402,385.833 22.078 C 385.833 21.709,385.740 21.454,385.583 21.394 C 385.446 21.341,385.333 21.156,385.333 20.982 C 385.333 20.809,385.258 20.667,385.167 20.667 C 385.075 20.667,385.000 20.479,385.000 20.250 C 385.000 20.021,384.925 19.833,384.833 19.833 C 384.742 19.833,384.667 19.681,384.667 19.495 C 384.667 19.309,384.554 19.113,384.417 19.060 C 384.279 19.008,384.167 18.817,384.167 18.637 C 384.167 18.283,383.800 17.833,383.512 17.833 C 383.414 17.833,383.333 17.662,383.333 17.453 C 383.333 17.245,383.183 16.965,383.000 16.833 C 382.817 16.701,382.667 16.457,382.667 16.291 C 382.667 16.125,382.554 15.946,382.417 15.894 C 382.279 15.841,382.167 15.725,382.167 15.637 C 382.167 15.457,381.749 15.000,381.583 15.000 C 381.380 15.000,381.000 14.523,381.000 14.269 C 381.000 13.981,379.774 12.667,379.507 12.667 C 379.411 12.667,379.333 12.554,379.333 12.417 C 379.333 12.278,379.185 12.167,379.000 12.167 C 378.817 12.167,378.667 12.092,378.667 12.000 C 378.667 11.908,378.554 11.833,378.417 11.833 C 378.279 11.833,378.167 11.753,378.167 11.655 C 378.167 11.424,377.743 11.000,377.512 11.000 C 377.414 11.000,377.333 10.925,377.333 10.833 C 377.333 10.742,377.183 10.667,377.000 10.667 C 376.815 10.667,376.667 10.556,376.667 10.417 C 376.667 10.279,376.554 10.167,376.417 10.167 C 376.279 10.167,376.167 10.092,376.167 10.000 C 376.167 9.908,375.979 9.833,375.750 9.833 C 375.521 9.833,375.333 9.753,375.333 9.655 C 375.333 9.361,374.881 9.000,374.512 9.000 C 374.322 9.000,374.167 8.925,374.167 8.833 C 374.167 8.742,373.979 8.667,373.750 8.667 C 373.491 8.667,373.333 8.572,373.333 8.417 C 373.333 8.261,373.176 8.167,372.917 8.167 C 372.688 8.167,372.500 8.092,372.500 8.000 C 372.500 7.908,372.238 7.833,371.917 7.833 C 371.509 7.833,371.333 7.758,371.333 7.583 C 371.333 7.409,371.157 7.333,370.750 7.333 C 370.429 7.333,370.167 7.258,370.167 7.167 C 370.167 7.074,369.722 7.000,369.167 7.000 C 368.611 7.000,368.167 6.926,368.167 6.833 C 368.167 6.742,367.824 6.667,367.405 6.667 C 366.728 6.667,366.671 6.639,366.893 6.417 C 367.033 6.276,367.440 6.167,367.821 6.167 C 368.195 6.167,368.500 6.092,368.500 6.000 C 368.500 5.908,368.800 5.833,369.167 5.833 C 369.648 5.833,369.833 5.764,369.833 5.583 C 369.833 5.409,370.009 5.333,370.417 5.333 C 370.738 5.333,371.000 5.258,371.000 5.167 C 371.000 5.075,371.155 5.000,371.345 5.000 C 371.714 5.000,372.167 4.639,372.167 4.345 C 372.167 4.247,372.354 4.167,372.583 4.167 C 373.121 4.167,373.220 2.261,372.713 1.669 C 372.334 1.226,368.892 1.153,368.727 1.583 C 368.555 2.030,367.833 1.895,367.833 1.417 C 367.833 1.188,367.908 1.000,368.000 1.000 C 368.092 1.000,368.167 0.775,368.167 0.500 L 368.167 0.000 366.792 0.027 C 366.035 0.041,365.169 0.084,364.865 0.121 M124.667 7.167 C 124.667 7.258,124.460 7.333,124.207 7.333 C 123.947 7.333,123.551 7.515,123.297 7.750 C 123.050 7.979,122.695 8.167,122.507 8.167 C 122.320 8.167,122.167 8.247,122.167 8.345 C 122.167 8.539,121.756 9.000,121.583 9.000 C 121.428 9.000,121.000 9.452,121.000 9.615 C 121.000 9.692,120.813 9.895,120.583 10.067 C 120.354 10.239,120.167 10.520,120.167 10.690 C 120.167 10.861,120.092 11.000,120.000 11.000 C 119.908 11.000,119.833 11.254,119.833 11.566 C 119.833 11.914,119.738 12.168,119.583 12.227 C 119.377 12.306,119.333 12.746,119.333 14.750 C 119.333 16.754,119.377 17.194,119.583 17.273 C 119.721 17.326,119.833 17.548,119.833 17.768 C 119.833 17.987,119.908 18.167,120.000 18.167 C 120.092 18.167,120.167 18.354,120.167 18.583 C 120.167 18.813,120.247 19.000,120.345 19.000 C 120.539 19.000,121.000 19.410,121.000 19.583 C 121.000 19.722,121.444 20.167,121.583 20.167 C 121.756 20.167,122.167 20.627,122.167 20.821 C 122.167 20.920,122.279 21.000,122.417 21.000 C 122.554 21.000,122.667 21.075,122.667 21.167 C 122.667 21.258,122.809 21.333,122.982 21.333 C 123.156 21.333,123.341 21.446,123.394 21.583 C 123.446 21.721,123.642 21.833,123.828 21.833 C 124.014 21.833,124.167 21.908,124.167 22.000 C 124.167 22.105,125.222 22.167,127.000 22.167 C 128.778 22.167,129.833 22.105,129.833 22.000 C 129.833 21.908,129.986 21.833,130.172 21.833 C 130.358 21.833,130.554 21.721,130.606 21.583 C 130.659 21.446,130.844 21.333,131.018 21.333 C 131.191 21.333,131.333 21.258,131.333 21.167 C 131.333 21.075,131.446 21.000,131.583 21.000 C 131.721 21.000,131.833 20.887,131.833 20.750 C 131.833 20.612,131.965 20.498,132.125 20.495 C 132.537 20.487,133.000 20.099,133.000 19.761 C 133.000 19.443,133.381 19.000,133.655 19.000 C 133.753 19.000,133.833 18.813,133.833 18.583 C 133.833 18.354,133.908 18.167,134.000 18.167 C 134.092 18.167,134.167 17.979,134.167 17.750 C 134.167 17.491,134.261 17.333,134.417 17.333 C 134.628 17.333,134.667 16.925,134.667 14.661 C 134.667 12.440,134.625 11.973,134.417 11.894 C 134.279 11.841,134.167 11.618,134.167 11.399 C 134.167 11.179,134.092 11.000,134.000 11.000 C 133.908 11.000,133.833 10.813,133.833 10.583 C 133.833 10.354,133.753 10.167,133.655 10.167 C 133.461 10.167,133.000 9.756,133.000 9.583 C 133.000 9.444,132.556 9.000,132.417 9.000 C 132.244 9.000,131.833 8.539,131.833 8.345 C 131.833 8.247,131.721 8.167,131.583 8.167 C 131.446 8.167,131.333 8.092,131.333 8.000 C 131.333 7.908,131.191 7.833,131.018 7.833 C 130.844 7.833,130.659 7.721,130.606 7.583 C 130.546 7.426,130.291 7.333,129.922 7.333 C 129.598 7.333,129.333 7.258,129.333 7.167 C 129.333 7.063,128.444 7.000,127.000 7.000 C 125.556 7.000,124.667 7.063,124.667 7.167 M5.000 8.833 C 5.000 8.925,4.737 9.000,4.417 9.000 C 4.096 9.000,3.833 9.075,3.833 9.167 C 3.833 9.258,3.694 9.333,3.523 9.333 C 3.353 9.333,3.073 9.521,2.900 9.750 C 2.728 9.979,2.493 10.167,2.377 10.167 C 2.261 10.167,2.167 10.279,2.167 10.417 C 2.167 10.559,2.017 10.667,1.818 10.667 C 1.609 10.667,1.434 10.801,1.382 11.000 C 1.334 11.183,1.228 11.333,1.147 11.333 C 1.066 11.333,1.000 11.446,1.000 11.583 C 1.000 11.721,0.925 11.833,0.833 11.833 C 0.742 11.833,0.667 12.021,0.667 12.250 C 0.667 12.501,0.572 12.667,0.427 12.667 C 0.000 12.667,-0.021 13.752,0.032 32.972 C 0.080 50.734,0.101 51.873,0.375 52.074 C 0.546 52.198,0.667 52.504,0.667 52.810 C 0.667 53.098,0.742 53.333,0.833 53.333 C 0.925 53.333,1.000 53.596,1.000 53.917 C 1.000 54.237,1.075 54.500,1.167 54.500 C 1.258 54.500,1.333 54.652,1.333 54.839 C 1.333 55.025,1.446 55.220,1.583 55.273 C 1.721 55.326,1.833 55.548,1.833 55.768 C 1.833 55.987,1.908 56.167,2.000 56.167 C 2.092 56.167,2.167 56.306,2.167 56.477 C 2.167 56.647,2.354 56.927,2.583 57.100 C 2.813 57.272,3.000 57.550,3.000 57.718 C 3.000 58.054,3.374 58.500,3.655 58.500 C 3.753 58.500,3.833 58.655,3.833 58.845 C 3.833 59.214,4.194 59.667,4.488 59.667 C 4.586 59.667,4.667 59.745,4.667 59.841 C 4.667 60.069,6.265 61.667,6.492 61.667 C 6.588 61.667,6.667 61.745,6.667 61.840 C 6.667 62.122,7.950 63.333,8.249 63.333 C 8.526 63.333,9.000 63.709,9.000 63.928 C 9.000 64.119,9.559 64.489,9.857 64.495 C 10.008 64.498,10.174 64.612,10.227 64.750 C 10.280 64.887,10.441 65.000,10.585 65.000 C 10.729 65.000,11.008 65.150,11.205 65.333 C 11.402 65.517,11.691 65.667,11.847 65.667 C 12.003 65.667,12.174 65.779,12.227 65.917 C 12.283 66.063,12.533 66.167,12.828 66.167 C 13.106 66.167,13.333 66.242,13.333 66.333 C 13.333 66.425,13.513 66.500,13.732 66.500 C 13.952 66.500,14.174 66.613,14.227 66.750 C 14.293 66.921,14.561 67.000,15.078 67.000 C 15.493 67.000,15.833 67.075,15.833 67.167 C 15.833 67.258,16.166 67.333,16.573 67.333 C 16.981 67.333,17.360 67.408,17.417 67.500 C 17.559 67.730,39.000 67.730,39.000 67.500 C 39.000 67.408,39.235 67.333,39.523 67.333 C 39.866 67.333,40.178 67.190,40.431 66.917 C 40.644 66.688,40.933 66.500,41.075 66.500 C 41.217 66.500,41.333 66.425,41.333 66.333 C 41.333 66.242,41.446 66.167,41.583 66.167 C 41.721 66.167,41.833 66.081,41.833 65.977 C 41.833 65.873,42.096 65.563,42.417 65.289 C 42.737 65.015,43.000 64.650,43.000 64.479 C 43.000 64.307,43.075 64.167,43.167 64.167 C 43.258 64.167,43.333 63.979,43.333 63.750 C 43.333 63.491,43.428 63.333,43.583 63.333 C 43.758 63.333,43.833 63.157,43.833 62.750 C 43.833 62.429,43.908 62.167,44.000 62.167 C 44.102 62.167,44.167 61.389,44.167 60.167 C 44.167 58.944,44.102 58.167,44.000 58.167 C 43.908 58.167,43.833 57.904,43.833 57.583 C 43.833 57.176,43.758 57.000,43.583 57.000 C 43.428 57.000,43.333 56.843,43.333 56.583 C 43.333 56.354,43.258 56.167,43.167 56.167 C 43.075 56.167,43.000 56.011,43.000 55.821 C 43.000 55.452,42.639 55.000,42.345 55.000 C 42.247 55.000,42.167 54.920,42.167 54.821 C 42.167 54.591,41.743 54.167,41.512 54.167 C 41.414 54.167,41.333 54.092,41.333 54.000 C 41.333 53.908,41.183 53.833,41.000 53.833 C 40.815 53.833,40.667 53.722,40.667 53.583 C 40.667 53.446,40.554 53.333,40.417 53.333 C 40.279 53.333,40.167 53.258,40.167 53.167 C 40.167 53.075,39.904 53.000,39.583 53.000 C 39.176 53.000,39.000 52.925,39.000 52.750 C 39.000 52.531,37.889 52.500,30.000 52.500 C 24.111 52.500,21.000 52.442,21.000 52.333 C 21.000 52.242,20.737 52.167,20.417 52.167 C 20.096 52.167,19.833 52.092,19.833 52.000 C 19.833 51.908,19.646 51.833,19.417 51.833 C 19.157 51.833,19.000 51.739,19.000 51.583 C 19.000 51.445,18.852 51.333,18.669 51.333 C 18.234 51.333,15.833 48.933,15.833 48.497 C 15.833 48.315,15.722 48.167,15.583 48.167 C 15.394 48.167,15.333 47.963,15.333 47.333 C 15.333 46.875,15.258 46.500,15.167 46.500 C 15.062 46.500,15.000 45.472,15.000 43.750 L 15.000 41.000 25.922 41.000 C 35.477 41.000,36.856 40.969,36.940 40.750 C 36.999 40.596,37.252 40.500,37.601 40.500 C 37.912 40.500,38.167 40.425,38.167 40.333 C 38.167 40.242,38.354 40.167,38.583 40.167 C 38.813 40.167,39.000 40.092,39.000 40.000 C 39.000 39.908,39.121 39.833,39.268 39.833 C 39.652 39.833,41.333 38.072,41.333 37.670 C 41.333 37.485,41.414 37.333,41.512 37.333 C 41.846 37.333,42.167 36.859,42.167 36.366 C 42.167 36.095,42.279 35.781,42.417 35.667 C 42.611 35.506,42.667 35.054,42.667 33.646 C 42.667 32.146,42.624 31.833,42.417 31.833 C 42.236 31.833,42.167 31.648,42.167 31.167 C 42.167 30.800,42.092 30.500,42.000 30.500 C 41.908 30.500,41.833 30.350,41.833 30.167 C 41.833 29.981,41.722 29.833,41.583 29.833 C 41.446 29.833,41.333 29.721,41.333 29.583 C 41.333 29.446,41.258 29.333,41.167 29.333 C 41.075 29.333,41.000 29.223,41.000 29.089 C 41.000 28.723,40.060 27.833,39.672 27.833 C 39.482 27.833,39.333 27.724,39.333 27.583 C 39.333 27.444,39.185 27.333,39.000 27.333 C 38.817 27.333,38.667 27.258,38.667 27.167 C 38.667 27.075,38.487 27.000,38.268 27.000 C 38.048 27.000,37.826 26.887,37.773 26.750 C 37.689 26.531,36.264 26.500,26.339 26.500 L 15.000 26.500 15.000 20.167 C 15.000 16.056,14.942 13.833,14.833 13.833 C 14.742 13.833,14.667 13.606,14.667 13.328 C 14.667 13.033,14.563 12.783,14.417 12.727 C 14.279 12.674,14.167 12.527,14.167 12.399 C 14.167 12.271,14.092 12.167,14.000 12.167 C 13.908 12.167,13.833 12.035,13.833 11.873 C 13.833 11.712,13.572 11.356,13.254 11.082 C 12.935 10.808,12.672 10.490,12.670 10.375 C 12.668 10.260,12.554 10.167,12.417 10.167 C 12.279 10.167,12.167 10.092,12.167 10.000 C 12.167 9.908,11.979 9.833,11.750 9.833 C 11.521 9.833,11.333 9.753,11.333 9.655 C 11.333 9.316,10.856 9.000,10.345 9.000 C 10.064 9.000,9.833 8.925,9.833 8.833 C 9.833 8.730,8.917 8.667,7.417 8.667 C 5.917 8.667,5.000 8.730,5.000 8.833 M144.667 8.833 C 144.667 8.925,144.367 9.000,144.000 9.000 C 143.633 9.000,143.333 9.075,143.333 9.167 C 143.333 9.258,143.183 9.333,143.000 9.333 C 142.815 9.333,142.667 9.444,142.667 9.583 C 142.667 9.721,142.554 9.833,142.417 9.833 C 142.279 9.833,142.167 9.908,142.167 10.000 C 142.167 10.092,142.057 10.167,141.922 10.167 C 141.556 10.167,140.667 11.107,140.667 11.494 C 140.667 11.681,140.586 11.833,140.488 11.833 C 140.218 11.833,139.833 12.274,139.833 12.583 C 139.833 12.734,139.721 12.970,139.583 13.107 C 139.446 13.245,139.333 13.652,139.333 14.012 C 139.333 14.372,139.258 14.667,139.167 14.667 C 139.057 14.667,139.000 20.361,139.000 31.417 C 139.000 42.472,139.057 48.167,139.167 48.167 C 139.263 48.167,139.333 48.690,139.333 49.405 C 139.333 50.283,139.406 50.716,139.583 50.893 C 139.721 51.030,139.833 51.373,139.833 51.655 C 139.833 51.936,139.908 52.167,140.000 52.167 C 140.092 52.167,140.167 52.429,140.167 52.750 C 140.167 53.157,140.242 53.333,140.417 53.333 C 140.591 53.333,140.667 53.509,140.667 53.917 C 140.667 54.237,140.742 54.500,140.833 54.500 C 140.925 54.500,141.000 54.688,141.000 54.917 C 141.000 55.146,141.075 55.333,141.167 55.333 C 141.258 55.333,141.333 55.486,141.333 55.672 C 141.333 55.858,141.446 56.054,141.583 56.106 C 141.721 56.159,141.833 56.382,141.833 56.601 C 141.833 56.821,141.908 57.000,142.000 57.000 C 142.092 57.000,142.167 57.150,142.167 57.333 C 142.167 57.519,142.278 57.667,142.417 57.667 C 142.554 57.667,142.667 57.763,142.667 57.880 C 142.667 57.997,142.817 58.201,143.000 58.333 C 143.183 58.465,143.333 58.697,143.333 58.847 C 143.333 58.997,143.521 59.261,143.750 59.433 C 143.979 59.605,144.167 59.840,144.167 59.956 C 144.167 60.072,144.247 60.167,144.345 60.167 C 144.539 60.167,145.000 60.577,145.000 60.750 C 145.000 60.889,145.444 61.333,145.583 61.333 C 145.756 61.333,146.167 61.794,146.167 61.988 C 146.167 62.086,146.247 62.167,146.345 62.167 C 146.562 62.167,147.000 62.585,147.000 62.793 C 147.000 62.876,147.188 63.044,147.417 63.167 C 147.646 63.289,147.833 63.452,147.833 63.528 C 147.833 63.604,148.021 63.667,148.250 63.667 C 148.479 63.667,148.667 63.747,148.667 63.845 C 148.667 64.139,149.119 64.500,149.488 64.500 C 149.678 64.500,149.833 64.585,149.833 64.690 C 149.833 64.946,150.348 65.321,150.708 65.328 C 150.869 65.331,151.000 65.408,151.000 65.500 C 151.000 65.592,151.188 65.667,151.417 65.667 C 151.676 65.667,151.833 65.761,151.833 65.917 C 151.833 66.091,152.009 66.167,152.417 66.167 C 152.737 66.167,153.000 66.242,153.000 66.333 C 153.000 66.425,153.188 66.500,153.417 66.500 C 153.676 66.500,153.833 66.594,153.833 66.750 C 153.833 66.935,154.028 67.000,154.583 67.000 C 154.996 67.000,155.333 67.075,155.333 67.167 C 155.333 67.258,155.708 67.333,156.167 67.333 C 156.625 67.333,157.000 67.408,157.000 67.500 C 157.000 67.608,159.389 67.667,163.833 67.667 C 168.278 67.667,170.667 67.608,170.667 67.500 C 170.667 67.408,170.873 67.331,171.125 67.328 C 171.625 67.322,172.167 66.991,172.167 66.690 C 172.167 66.585,172.322 66.500,172.512 66.500 C 172.881 66.500,173.333 66.139,173.333 65.845 C 173.333 65.747,173.416 65.667,173.516 65.667 C 173.772 65.667,174.667 64.681,174.667 64.399 C 174.667 64.271,174.742 64.167,174.833 64.167 C 174.925 64.167,175.000 63.979,175.000 63.750 C 175.000 63.521,175.075 63.333,175.167 63.333 C 175.258 63.333,175.333 63.071,175.333 62.750 C 175.333 62.343,175.409 62.167,175.583 62.167 C 175.792 62.167,175.833 61.833,175.833 60.167 C 175.833 58.500,175.792 58.167,175.583 58.167 C 175.409 58.167,175.333 57.991,175.333 57.583 C 175.333 57.262,175.258 57.000,175.167 57.000 C 175.075 57.000,175.000 56.813,175.000 56.583 C 175.000 56.354,174.925 56.167,174.833 56.167 C 174.742 56.167,174.667 56.058,174.667 55.924 C 174.667 55.542,172.907 53.833,172.514 53.833 C 172.323 53.833,172.167 53.753,172.167 53.655 C 172.167 53.320,171.692 53.000,171.196 53.000 C 170.911 53.000,170.662 52.894,170.606 52.750 C 170.524 52.536,169.811 52.500,165.598 52.500 C 162.503 52.500,160.648 52.438,160.583 52.333 C 160.527 52.242,160.147 52.167,159.740 52.167 C 159.333 52.167,159.000 52.092,159.000 52.000 C 159.000 51.908,158.813 51.833,158.583 51.833 C 158.354 51.833,158.167 51.753,158.167 51.655 C 158.167 51.361,157.714 51.000,157.345 51.000 C 157.155 51.000,157.000 50.920,157.000 50.821 C 157.000 50.591,156.576 50.167,156.345 50.167 C 156.247 50.167,156.167 50.011,156.167 49.821 C 156.167 49.452,155.806 49.000,155.512 49.000 C 155.414 49.000,155.333 48.813,155.333 48.583 C 155.333 48.354,155.258 48.167,155.167 48.167 C 155.075 48.167,155.000 47.904,155.000 47.583 C 155.000 47.262,154.925 47.000,154.833 47.000 C 154.728 47.000,154.667 45.889,154.667 44.000 L 154.667 41.000 161.566 41.000 C 167.544 41.000,168.477 40.967,168.560 40.750 C 168.620 40.593,168.875 40.500,169.245 40.500 C 169.568 40.500,169.833 40.425,169.833 40.333 C 169.833 40.242,170.021 40.167,170.250 40.167 C 170.479 40.167,170.667 40.092,170.667 40.000 C 170.667 39.908,170.782 39.833,170.922 39.833 C 171.062 39.833,171.220 39.721,171.273 39.583 C 171.326 39.446,171.441 39.333,171.530 39.333 C 171.746 39.333,172.167 38.901,172.167 38.679 C 172.167 38.580,172.247 38.500,172.345 38.500 C 172.626 38.500,173.000 38.054,173.000 37.718 C 173.000 37.550,173.188 37.272,173.417 37.100 C 173.750 36.850,173.833 36.641,173.833 36.060 C 173.833 35.660,173.908 35.333,174.000 35.333 C 174.101 35.333,174.167 34.639,174.167 33.583 C 174.167 32.528,174.101 31.833,174.000 31.833 C 173.908 31.833,173.833 31.568,173.833 31.245 C 173.833 30.875,173.740 30.620,173.583 30.560 C 173.446 30.508,173.333 30.322,173.333 30.149 C 173.333 29.975,173.258 29.833,173.167 29.833 C 173.075 29.833,173.000 29.721,173.000 29.583 C 173.000 29.446,172.925 29.333,172.833 29.333 C 172.742 29.333,172.667 29.218,172.667 29.078 C 172.667 28.938,172.554 28.780,172.417 28.727 C 172.279 28.674,172.167 28.559,172.167 28.470 C 172.167 28.192,171.704 27.833,171.345 27.833 C 171.149 27.833,171.000 27.725,171.000 27.583 C 171.000 27.428,170.843 27.333,170.583 27.333 C 170.354 27.333,170.167 27.258,170.167 27.167 C 170.167 27.075,169.987 27.000,169.768 27.000 C 169.548 27.000,169.326 26.888,169.273 26.750 C 169.190 26.533,168.217 26.500,161.922 26.500 L 154.667 26.500 154.667 20.411 C 154.667 15.153,154.633 14.310,154.417 14.227 C 154.262 14.168,154.167 13.914,154.167 13.566 C 154.167 13.254,154.092 13.000,154.000 13.000 C 153.908 13.000,153.833 12.813,153.833 12.583 C 153.833 12.324,153.739 12.167,153.583 12.167 C 153.446 12.167,153.333 12.035,153.333 11.875 C 153.333 11.534,152.631 10.667,152.356 10.667 C 152.252 10.667,152.167 10.586,152.167 10.488 C 152.167 10.194,151.714 9.833,151.345 9.833 C 151.149 9.833,151.000 9.725,151.000 9.583 C 151.000 9.428,150.843 9.333,150.583 9.333 C 150.354 9.333,150.167 9.258,150.167 9.167 C 150.167 9.075,149.979 9.000,149.750 9.000 C 149.521 9.000,149.333 8.925,149.333 8.833 C 149.333 8.730,148.444 8.667,147.000 8.667 C 145.556 8.667,144.667 8.730,144.667 8.833 M182.667 8.833 C 182.667 8.925,182.479 9.000,182.250 9.000 C 182.021 9.000,181.833 9.075,181.833 9.167 C 181.833 9.258,181.646 9.333,181.417 9.333 C 181.157 9.333,181.000 9.428,181.000 9.583 C 181.000 9.725,180.851 9.833,180.655 9.833 C 180.286 9.833,179.833 10.194,179.833 10.488 C 179.833 10.586,179.753 10.667,179.655 10.667 C 179.385 10.667,179.000 11.107,179.000 11.417 C 179.000 11.726,178.615 12.167,178.345 12.167 C 178.247 12.167,178.167 12.354,178.167 12.583 C 178.167 12.813,178.092 13.000,178.000 13.000 C 177.908 13.000,177.833 13.375,177.833 13.833 C 177.833 14.463,177.772 14.667,177.583 14.667 C 177.363 14.667,177.333 16.649,177.333 31.505 C 177.333 46.319,177.363 48.355,177.583 48.440 C 177.774 48.513,177.833 48.826,177.833 49.768 C 177.833 50.478,177.904 51.000,178.000 51.000 C 178.092 51.000,178.167 51.337,178.167 51.750 C 178.167 52.306,178.231 52.500,178.417 52.500 C 178.591 52.500,178.667 52.676,178.667 53.083 C 178.667 53.404,178.742 53.667,178.833 53.667 C 178.925 53.667,179.000 53.854,179.000 54.083 C 179.000 54.313,179.075 54.500,179.167 54.500 C 179.258 54.500,179.333 54.688,179.333 54.917 C 179.333 55.176,179.428 55.333,179.583 55.333 C 179.739 55.333,179.833 55.491,179.833 55.750 C 179.833 55.979,179.908 56.167,180.000 56.167 C 180.092 56.167,180.167 56.354,180.167 56.583 C 180.167 56.843,180.261 57.000,180.417 57.000 C 180.556 57.000,180.667 57.148,180.667 57.333 C 180.667 57.517,180.742 57.667,180.833 57.667 C 180.925 57.667,181.000 57.779,181.000 57.917 C 181.000 58.054,181.075 58.167,181.167 58.167 C 181.258 58.167,181.333 58.271,181.333 58.399 C 181.333 58.681,182.228 59.667,182.484 59.667 C 182.584 59.667,182.667 59.745,182.667 59.841 C 182.667 60.069,184.265 61.667,184.492 61.667 C 184.588 61.667,184.667 61.745,184.667 61.841 C 184.667 62.160,186.311 63.667,186.659 63.667 C 186.846 63.667,187.000 63.747,187.000 63.845 C 187.000 64.139,187.452 64.500,187.821 64.500 C 188.017 64.500,188.167 64.608,188.167 64.750 C 188.167 64.887,188.279 65.000,188.417 65.000 C 188.554 65.000,188.667 65.075,188.667 65.167 C 188.667 65.258,188.817 65.333,189.000 65.333 C 189.183 65.333,189.333 65.408,189.333 65.500 C 189.333 65.592,189.521 65.667,189.750 65.667 C 190.009 65.667,190.167 65.761,190.167 65.917 C 190.167 66.072,190.324 66.167,190.583 66.167 C 190.813 66.167,191.000 66.242,191.000 66.333 C 191.000 66.425,191.254 66.500,191.566 66.500 C 191.914 66.500,192.168 66.596,192.227 66.750 C 192.287 66.907,192.542 67.000,192.911 67.000 C 193.235 67.000,193.500 67.075,193.500 67.167 C 193.500 67.258,193.912 67.333,194.417 67.333 C 194.921 67.333,195.333 67.408,195.333 67.500 C 195.333 67.608,197.722 67.667,202.167 67.667 C 206.611 67.667,209.000 67.608,209.000 67.500 C 209.000 67.408,209.235 67.333,209.523 67.333 C 209.866 67.333,210.178 67.190,210.431 66.917 C 210.644 66.688,210.933 66.500,211.075 66.500 C 211.217 66.500,211.333 66.425,211.333 66.333 C 211.333 66.242,211.446 66.167,211.583 66.167 C 211.721 66.167,211.833 66.081,211.833 65.977 C 211.833 65.873,212.096 65.563,212.417 65.289 C 212.737 65.015,213.000 64.650,213.000 64.479 C 213.000 64.307,213.075 64.167,213.167 64.167 C 213.258 64.167,213.333 63.979,213.333 63.750 C 213.333 63.491,213.428 63.333,213.583 63.333 C 213.758 63.333,213.833 63.157,213.833 62.750 C 213.833 62.429,213.908 62.167,214.000 62.167 C 214.102 62.167,214.167 61.389,214.167 60.167 C 214.167 58.944,214.102 58.167,214.000 58.167 C 213.908 58.167,213.833 57.904,213.833 57.583 C 213.833 57.176,213.758 57.000,213.583 57.000 C 213.428 57.000,213.333 56.843,213.333 56.583 C 213.333 56.354,213.258 56.167,213.167 56.167 C 213.075 56.167,213.000 56.011,213.000 55.821 C 213.000 55.452,212.639 55.000,212.345 55.000 C 212.247 55.000,212.167 54.920,212.167 54.821 C 212.167 54.591,211.743 54.167,211.512 54.167 C 211.414 54.167,211.333 54.092,211.333 54.000 C 211.333 53.908,211.183 53.833,211.000 53.833 C 210.815 53.833,210.667 53.722,210.667 53.583 C 210.667 53.446,210.554 53.333,210.417 53.333 C 210.279 53.333,210.167 53.258,210.167 53.167 C 210.167 53.075,209.904 53.000,209.583 53.000 C 209.176 53.000,209.000 52.925,209.000 52.750 C 209.000 52.533,208.333 52.500,204.000 52.500 C 200.778 52.500,199.000 52.441,199.000 52.333 C 199.000 52.242,198.625 52.167,198.167 52.167 C 197.708 52.167,197.333 52.092,197.333 52.000 C 197.333 51.908,197.183 51.833,197.000 51.833 C 196.815 51.833,196.667 51.722,196.667 51.583 C 196.667 51.446,196.554 51.333,196.417 51.333 C 196.279 51.333,196.167 51.258,196.167 51.167 C 196.167 51.075,195.979 51.000,195.750 51.000 C 195.521 51.000,195.333 50.922,195.333 50.826 C 195.333 50.600,194.567 49.833,194.341 49.833 C 194.245 49.833,194.167 49.646,194.167 49.417 C 194.167 49.188,194.092 49.000,194.000 49.000 C 193.908 49.000,193.833 48.813,193.833 48.583 C 193.833 48.324,193.739 48.167,193.583 48.167 C 193.409 48.167,193.333 47.991,193.333 47.583 C 193.333 47.262,193.258 47.000,193.167 47.000 C 193.062 47.000,193.000 45.889,193.000 44.000 L 193.000 41.000 199.755 41.000 C 205.606 41.000,206.523 40.967,206.606 40.750 C 206.672 40.580,206.937 40.500,207.434 40.500 C 207.837 40.500,208.167 40.425,208.167 40.333 C 208.167 40.242,208.354 40.167,208.583 40.167 C 208.813 40.167,209.000 40.092,209.000 40.000 C 209.000 39.908,209.109 39.833,209.243 39.833 C 209.624 39.833,211.333 38.074,211.333 37.681 C 211.333 37.483,211.441 37.333,211.583 37.333 C 211.739 37.333,211.833 37.176,211.833 36.917 C 211.833 36.688,211.908 36.500,212.000 36.500 C 212.092 36.500,212.167 36.237,212.167 35.917 C 212.167 35.509,212.242 35.333,212.417 35.333 C 212.622 35.333,212.667 35.036,212.667 33.661 C 212.667 32.329,212.616 31.970,212.417 31.894 C 212.264 31.835,212.167 31.582,212.167 31.242 C 212.167 30.936,212.092 30.640,212.000 30.583 C 211.908 30.527,211.833 30.335,211.833 30.157 C 211.833 29.979,211.721 29.833,211.583 29.833 C 211.446 29.833,211.333 29.721,211.333 29.583 C 211.333 29.446,211.258 29.333,211.167 29.333 C 211.075 29.333,211.000 29.221,211.000 29.083 C 211.000 28.760,210.406 28.167,210.083 28.167 C 209.946 28.167,209.833 28.092,209.833 28.000 C 209.833 27.908,209.721 27.833,209.583 27.833 C 209.446 27.833,209.333 27.721,209.333 27.583 C 209.333 27.444,209.185 27.333,209.000 27.333 C 208.817 27.333,208.667 27.258,208.667 27.167 C 208.667 27.075,208.511 27.000,208.321 27.000 C 208.132 27.000,207.864 26.887,207.726 26.750 C 207.512 26.535,206.450 26.500,200.238 26.500 L 193.000 26.500 193.000 20.333 C 193.000 16.333,192.941 14.167,192.833 14.167 C 192.742 14.167,192.667 13.939,192.667 13.661 C 192.667 13.366,192.563 13.116,192.417 13.060 C 192.279 13.008,192.167 12.817,192.167 12.637 C 192.167 12.283,191.800 11.833,191.512 11.833 C 191.414 11.833,191.333 11.680,191.333 11.493 C 191.333 11.048,190.124 9.833,189.680 9.833 C 189.483 9.833,189.333 9.725,189.333 9.583 C 189.333 9.444,189.185 9.333,189.000 9.333 C 188.817 9.333,188.667 9.258,188.667 9.167 C 188.667 9.075,188.479 9.000,188.250 9.000 C 188.021 9.000,187.833 8.925,187.833 8.833 C 187.833 8.729,186.861 8.667,185.250 8.667 C 183.639 8.667,182.667 8.729,182.667 8.833 M51.394 25.583 C 51.334 25.738,51.081 25.833,50.732 25.833 C 50.421 25.833,50.167 25.908,50.167 26.000 C 50.167 26.092,49.979 26.167,49.750 26.167 C 49.521 26.167,49.333 26.242,49.333 26.333 C 49.333 26.425,49.218 26.500,49.078 26.500 C 48.938 26.500,48.780 26.613,48.727 26.750 C 48.674 26.887,48.559 27.000,48.470 27.000 C 48.254 27.000,47.833 27.432,47.833 27.655 C 47.833 27.753,47.753 27.833,47.655 27.833 C 47.361 27.833,47.000 28.286,47.000 28.655 C 47.000 28.845,46.925 29.000,46.833 29.000 C 46.742 29.000,46.667 29.188,46.667 29.417 C 46.667 29.676,46.572 29.833,46.417 29.833 C 46.242 29.833,46.167 30.009,46.167 30.417 C 46.167 30.738,46.092 31.000,46.000 31.000 C 45.891 31.000,45.833 34.219,45.833 40.323 C 45.833 46.359,45.892 49.683,46.000 49.750 C 46.092 49.807,46.167 50.374,46.167 51.010 C 46.167 51.927,46.218 52.167,46.417 52.167 C 46.602 52.167,46.667 52.361,46.667 52.917 C 46.667 53.329,46.742 53.667,46.833 53.667 C 46.925 53.667,47.000 53.925,47.000 54.240 C 47.000 54.556,47.075 54.860,47.167 54.917 C 47.258 54.973,47.333 55.165,47.333 55.343 C 47.333 55.521,47.446 55.667,47.583 55.667 C 47.739 55.667,47.833 55.824,47.833 56.083 C 47.833 56.313,47.908 56.500,48.000 56.500 C 48.092 56.500,48.167 56.688,48.167 56.917 C 48.167 57.176,48.261 57.333,48.417 57.333 C 48.566 57.333,48.667 57.487,48.667 57.713 C 48.667 57.922,48.817 58.201,49.000 58.333 C 49.183 58.465,49.333 58.666,49.333 58.779 C 49.333 58.892,49.521 59.172,49.750 59.402 C 49.979 59.631,50.167 59.897,50.167 59.992 C 50.167 60.088,50.247 60.167,50.345 60.167 C 50.576 60.167,51.000 60.591,51.000 60.821 C 51.000 60.920,51.075 61.000,51.167 61.000 C 51.258 61.000,51.333 61.115,51.333 61.255 C 51.333 61.396,51.446 61.554,51.583 61.606 C 51.721 61.659,51.833 61.775,51.833 61.863 C 51.833 62.142,52.296 62.500,52.655 62.500 C 52.845 62.500,53.000 62.580,53.000 62.679 C 53.000 62.873,53.410 63.333,53.583 63.333 C 53.756 63.333,54.167 63.794,54.167 63.988 C 54.167 64.086,54.336 64.167,54.544 64.167 C 54.751 64.167,55.061 64.354,55.234 64.583 C 55.406 64.813,55.686 65.000,55.857 65.000 C 56.027 65.000,56.167 65.075,56.167 65.167 C 56.167 65.258,56.279 65.333,56.417 65.333 C 56.554 65.333,56.667 65.408,56.667 65.500 C 56.667 65.592,56.819 65.667,57.005 65.667 C 57.191 65.667,57.387 65.779,57.440 65.917 C 57.499 66.071,57.752 66.167,58.101 66.167 C 58.412 66.167,58.667 66.242,58.667 66.333 C 58.667 66.425,58.807 66.500,58.980 66.500 C 59.152 66.500,59.386 66.612,59.500 66.750 C 59.614 66.887,59.923 67.000,60.187 67.000 C 60.451 67.000,60.667 67.075,60.667 67.167 C 60.667 67.259,61.111 67.333,61.667 67.333 C 62.222 67.333,62.667 67.407,62.667 67.500 C 62.667 67.607,64.167 67.667,66.833 67.667 C 69.500 67.667,71.000 67.607,71.000 67.500 C 71.000 67.408,71.375 67.333,71.833 67.333 C 72.292 67.333,72.667 67.258,72.667 67.167 C 72.667 67.075,72.969 67.000,73.339 67.000 C 73.782 67.000,74.043 66.915,74.106 66.750 C 74.159 66.612,74.382 66.500,74.601 66.500 C 74.821 66.500,75.000 66.425,75.000 66.333 C 75.000 66.242,75.188 66.167,75.417 66.167 C 75.676 66.167,75.833 66.072,75.833 65.917 C 75.833 65.761,75.991 65.667,76.250 65.667 C 76.479 65.667,76.667 65.592,76.667 65.500 C 76.667 65.408,76.817 65.333,77.000 65.333 C 77.183 65.333,77.333 65.258,77.333 65.167 C 77.333 65.075,77.486 65.000,77.672 65.000 C 77.858 65.000,78.054 64.887,78.106 64.750 C 78.159 64.612,78.275 64.500,78.363 64.500 C 78.579 64.500,79.000 64.068,79.000 63.845 C 79.000 63.747,79.171 63.667,79.380 63.667 C 79.589 63.667,79.868 63.517,80.000 63.333 C 80.326 62.882,80.438 62.907,81.094 63.583 C 81.406 63.904,81.775 64.167,81.914 64.167 C 82.053 64.167,82.167 64.242,82.167 64.333 C 82.167 64.425,82.271 64.500,82.399 64.500 C 82.527 64.500,82.674 64.612,82.727 64.750 C 82.780 64.887,82.938 65.000,83.078 65.000 C 83.218 65.000,83.333 65.075,83.333 65.167 C 83.333 65.258,83.521 65.333,83.750 65.333 C 83.979 65.333,84.167 65.408,84.167 65.500 C 84.167 65.592,84.354 65.667,84.583 65.667 C 84.843 65.667,85.000 65.761,85.000 65.917 C 85.000 66.072,85.157 66.167,85.417 66.167 C 85.646 66.167,85.833 66.242,85.833 66.333 C 85.833 66.425,86.096 66.500,86.417 66.500 C 86.824 66.500,87.000 66.575,87.000 66.750 C 87.000 66.925,87.176 67.000,87.583 67.000 C 87.904 67.000,88.167 67.075,88.167 67.167 C 88.167 67.258,88.542 67.333,89.000 67.333 C 89.458 67.333,89.833 67.408,89.833 67.500 C 89.833 67.607,91.333 67.667,94.000 67.667 C 96.667 67.667,98.167 67.607,98.167 67.500 C 98.167 67.407,98.611 67.333,99.167 67.333 C 99.722 67.333,100.167 67.259,100.167 67.167 C 100.167 67.075,100.429 67.000,100.750 67.000 C 101.157 67.000,101.333 66.925,101.333 66.750 C 101.333 66.594,101.491 66.500,101.750 66.500 C 101.979 66.500,102.167 66.425,102.167 66.333 C 102.167 66.242,102.429 66.167,102.750 66.167 C 103.157 66.167,103.333 66.091,103.333 65.917 C 103.333 65.761,103.491 65.667,103.750 65.667 C 103.979 65.667,104.167 65.592,104.167 65.500 C 104.167 65.408,104.279 65.333,104.417 65.333 C 104.554 65.333,104.667 65.258,104.667 65.167 C 104.667 65.075,104.817 65.000,105.000 65.000 C 105.185 65.000,105.333 64.889,105.333 64.750 C 105.333 64.612,105.446 64.500,105.583 64.500 C 105.721 64.500,105.833 64.425,105.833 64.333 C 105.833 64.242,105.965 64.167,106.127 64.167 C 106.288 64.167,106.644 63.906,106.918 63.587 C 107.192 63.268,107.529 63.004,107.667 63.001 C 107.804 62.997,108.093 62.808,108.309 62.580 C 108.525 62.353,108.769 62.167,108.851 62.167 C 108.933 62.167,109.000 62.072,109.000 61.956 C 109.000 61.840,109.188 61.605,109.417 61.433 C 109.646 61.261,109.833 61.013,109.833 60.881 C 109.833 60.601,110.232 60.167,110.488 60.167 C 110.586 60.167,110.667 60.071,110.667 59.953 C 110.667 59.836,110.817 59.632,111.000 59.500 C 111.183 59.368,111.333 59.089,111.333 58.880 C 111.333 58.671,111.414 58.500,111.512 58.500 C 111.806 58.500,112.167 58.048,112.167 57.679 C 112.167 57.483,112.275 57.333,112.417 57.333 C 112.572 57.333,112.667 57.176,112.667 56.917 C 112.667 56.688,112.742 56.500,112.833 56.500 C 112.925 56.500,113.000 56.313,113.000 56.083 C 113.000 55.854,113.075 55.667,113.167 55.667 C 113.258 55.667,113.333 55.525,113.333 55.351 C 113.333 55.178,113.446 54.992,113.583 54.940 C 113.728 54.884,113.833 54.635,113.833 54.348 C 113.833 54.076,113.908 53.807,114.000 53.750 C 114.092 53.693,114.167 53.322,114.167 52.925 C 114.167 52.436,114.248 52.171,114.417 52.106 C 114.597 52.037,114.667 51.754,114.667 51.089 C 114.667 50.582,114.742 50.167,114.833 50.167 C 114.943 50.167,115.000 46.861,115.000 40.583 C 115.000 34.306,114.943 31.000,114.833 31.000 C 114.742 31.000,114.667 30.703,114.667 30.341 C 114.667 29.860,114.554 29.569,114.250 29.265 C 114.021 29.036,113.833 28.695,113.833 28.508 C 113.833 28.320,113.753 28.167,113.655 28.167 C 113.461 28.167,113.000 27.756,113.000 27.583 C 113.000 27.418,112.543 27.000,112.363 27.000 C 112.275 27.000,112.159 26.888,112.106 26.750 C 112.054 26.613,111.858 26.500,111.672 26.500 C 111.486 26.500,111.333 26.425,111.333 26.333 C 111.333 26.242,111.183 26.167,111.000 26.167 C 110.817 26.167,110.667 26.092,110.667 26.000 C 110.667 25.908,110.367 25.833,110.000 25.833 C 109.519 25.833,109.333 25.764,109.333 25.583 C 109.333 25.377,109.028 25.333,107.583 25.333 C 106.139 25.333,105.833 25.377,105.833 25.583 C 105.833 25.758,105.657 25.833,105.250 25.833 C 104.929 25.833,104.667 25.908,104.667 26.000 C 104.667 26.092,104.507 26.167,104.311 26.167 C 104.115 26.167,103.781 26.354,103.569 26.583 C 103.356 26.813,103.098 27.000,102.995 27.000 C 102.752 27.000,101.833 27.918,101.833 28.162 C 101.833 28.265,101.646 28.523,101.417 28.735 C 101.143 28.989,101.000 29.301,101.000 29.644 C 101.000 29.932,100.925 30.167,100.833 30.167 C 100.724 30.167,100.667 33.139,100.667 38.750 C 100.667 46.269,100.636 47.333,100.417 47.333 C 100.228 47.333,100.167 47.537,100.167 48.167 C 100.167 48.625,100.092 49.000,100.000 49.000 C 99.908 49.000,99.833 49.179,99.833 49.399 C 99.833 49.618,99.721 49.841,99.583 49.894 C 99.446 49.946,99.333 50.104,99.333 50.245 C 99.333 50.385,99.258 50.500,99.167 50.500 C 99.075 50.500,99.000 50.575,99.000 50.667 C 99.000 50.884,97.717 52.167,97.500 52.167 C 97.408 52.167,97.333 52.242,97.333 52.333 C 97.333 52.425,97.183 52.500,97.000 52.500 C 96.815 52.500,96.667 52.611,96.667 52.750 C 96.667 52.924,96.492 53.000,96.093 53.000 C 95.778 53.000,95.473 53.075,95.417 53.167 C 95.360 53.258,94.718 53.333,93.990 53.333 C 93.219 53.333,92.667 53.264,92.667 53.167 C 92.667 53.075,92.367 53.000,92.000 53.000 C 91.633 53.000,91.333 52.920,91.333 52.821 C 91.333 52.551,90.893 52.167,90.583 52.167 C 90.274 52.167,89.833 51.782,89.833 51.512 C 89.833 51.414,89.753 51.333,89.655 51.333 C 89.385 51.333,89.000 50.893,89.000 50.583 C 89.000 50.274,88.615 49.833,88.345 49.833 C 88.247 49.833,88.167 49.533,88.167 49.167 C 88.167 48.800,88.092 48.500,88.000 48.500 C 87.891 48.500,87.833 45.472,87.833 39.750 C 87.833 32.083,87.802 31.000,87.583 31.000 C 87.409 31.000,87.333 30.824,87.333 30.417 C 87.333 30.096,87.258 29.833,87.167 29.833 C 87.075 29.833,87.000 29.646,87.000 29.417 C 87.000 29.188,86.925 29.000,86.833 29.000 C 86.742 29.000,86.667 28.861,86.667 28.690 C 86.667 28.520,86.479 28.239,86.250 28.067 C 86.021 27.895,85.833 27.660,85.833 27.544 C 85.833 27.428,85.755 27.333,85.659 27.333 C 85.563 27.333,85.297 27.146,85.068 26.917 C 84.839 26.688,84.542 26.500,84.409 26.500 C 84.276 26.500,84.167 26.425,84.167 26.333 C 84.167 26.242,83.979 26.167,83.750 26.167 C 83.521 26.167,83.333 26.092,83.333 26.000 C 83.333 25.908,83.071 25.833,82.750 25.833 C 82.343 25.833,82.167 25.758,82.167 25.583 C 82.167 25.377,81.861 25.333,80.417 25.333 C 78.972 25.333,78.667 25.377,78.667 25.583 C 78.667 25.764,78.481 25.833,78.000 25.833 C 77.633 25.833,77.333 25.908,77.333 26.000 C 77.333 26.092,77.183 26.167,77.000 26.167 C 76.817 26.167,76.667 26.234,76.667 26.315 C 76.667 26.397,76.479 26.511,76.250 26.568 C 76.021 26.626,75.833 26.747,75.833 26.837 C 75.833 26.926,75.753 27.000,75.655 27.000 C 75.443 27.000,75.000 27.417,75.000 27.615 C 75.000 27.692,74.813 27.895,74.583 28.067 C 74.354 28.239,74.167 28.520,74.167 28.690 C 74.167 28.861,74.092 29.000,74.000 29.000 C 73.908 29.000,73.833 29.188,73.833 29.417 C 73.833 29.676,73.739 29.833,73.583 29.833 C 73.409 29.833,73.333 30.009,73.333 30.417 C 73.333 30.738,73.258 31.000,73.167 31.000 C 73.058 31.000,73.000 34.024,73.000 39.740 C 73.000 45.387,72.941 48.517,72.833 48.583 C 72.742 48.640,72.667 48.944,72.667 49.260 C 72.667 49.575,72.586 49.833,72.488 49.833 C 72.194 49.833,71.833 50.286,71.833 50.655 C 71.833 50.845,71.753 51.000,71.655 51.000 C 71.461 51.000,71.000 51.410,71.000 51.583 C 71.000 51.796,70.517 52.167,70.239 52.167 C 70.083 52.167,69.781 52.354,69.569 52.583 C 69.320 52.852,69.002 53.000,68.675 53.000 C 68.395 53.000,68.167 53.075,68.167 53.167 C 68.167 53.265,67.583 53.333,66.750 53.333 C 65.917 53.333,65.333 53.265,65.333 53.167 C 65.333 53.075,65.071 53.000,64.750 53.000 C 64.343 53.000,64.167 52.925,64.167 52.750 C 64.167 52.611,64.018 52.500,63.831 52.500 C 63.495 52.500,61.833 50.973,61.833 50.664 C 61.833 50.574,61.721 50.500,61.583 50.500 C 61.444 50.500,61.333 50.352,61.333 50.167 C 61.333 49.983,61.258 49.833,61.167 49.833 C 61.075 49.833,61.000 49.646,61.000 49.417 C 61.000 49.188,60.925 49.000,60.833 49.000 C 60.724 49.000,60.667 46.054,60.667 40.495 C 60.667 33.088,60.634 31.977,60.417 31.894 C 60.234 31.823,60.167 31.535,60.167 30.816 C 60.167 30.272,60.092 29.833,60.000 29.833 C 59.908 29.833,59.833 29.646,59.833 29.417 C 59.833 29.157,59.739 29.000,59.583 29.000 C 59.443 29.000,59.333 28.851,59.333 28.659 C 59.333 28.266,57.899 26.763,57.361 26.592 C 57.163 26.529,57.000 26.408,57.000 26.322 C 57.000 26.237,56.813 26.167,56.583 26.167 C 56.354 26.167,56.167 26.092,56.167 26.000 C 56.167 25.908,55.904 25.833,55.583 25.833 C 55.176 25.833,55.000 25.758,55.000 25.583 C 55.000 25.377,54.694 25.333,53.245 25.333 C 51.838 25.333,51.470 25.383,51.394 25.583 M125.060 25.583 C 125.001 25.738,124.748 25.833,124.399 25.833 C 124.088 25.833,123.833 25.908,123.833 26.000 C 123.833 26.092,123.678 26.167,123.488 26.167 C 123.119 26.167,122.667 26.527,122.667 26.821 C 122.667 26.920,122.511 27.000,122.320 27.000 C 121.876 27.000,120.667 28.214,120.667 28.660 C 120.667 28.851,120.557 29.000,120.417 29.000 C 120.261 29.000,120.167 29.157,120.167 29.417 C 120.167 29.646,120.092 29.833,120.000 29.833 C 119.908 29.833,119.833 29.986,119.833 30.172 C 119.833 30.358,119.721 30.554,119.583 30.606 C 119.203 30.752,119.203 62.500,119.583 62.500 C 119.758 62.500,119.833 62.676,119.833 63.083 C 119.833 63.404,119.908 63.667,120.000 63.667 C 120.092 63.667,120.167 63.854,120.167 64.083 C 120.167 64.343,120.261 64.500,120.417 64.500 C 120.554 64.500,120.667 64.578,120.667 64.674 C 120.667 64.900,121.433 65.667,121.659 65.667 C 121.755 65.667,121.833 65.747,121.833 65.845 C 121.833 66.076,122.257 66.500,122.488 66.500 C 122.586 66.500,122.667 66.570,122.667 66.654 C 122.667 66.832,123.608 67.333,123.942 67.333 C 124.066 67.333,124.167 67.408,124.167 67.500 C 124.167 67.605,125.222 67.667,127.000 67.667 C 128.778 67.667,129.833 67.605,129.833 67.500 C 129.833 67.408,130.021 67.333,130.250 67.333 C 130.479 67.333,130.667 67.258,130.667 67.167 C 130.667 67.075,130.817 67.000,131.000 67.000 C 131.185 67.000,131.333 66.889,131.333 66.750 C 131.333 66.612,131.414 66.500,131.512 66.500 C 131.743 66.500,132.167 66.076,132.167 65.845 C 132.167 65.747,132.245 65.667,132.341 65.667 C 132.567 65.667,133.333 64.900,133.333 64.674 C 133.333 64.578,133.446 64.500,133.583 64.500 C 133.739 64.500,133.833 64.343,133.833 64.083 C 133.833 63.854,133.908 63.667,134.000 63.667 C 134.092 63.667,134.167 63.525,134.167 63.351 C 134.167 63.178,134.279 62.992,134.417 62.940 C 134.637 62.855,134.667 60.902,134.667 46.750 C 134.667 32.598,134.637 30.645,134.417 30.560 C 134.272 30.505,134.167 30.256,134.167 29.970 C 134.167 29.475,133.846 29.000,133.512 29.000 C 133.414 29.000,133.333 28.846,133.333 28.659 C 133.333 28.266,131.899 26.763,131.361 26.592 C 131.163 26.529,131.000 26.408,131.000 26.322 C 131.000 26.237,130.813 26.167,130.583 26.167 C 130.354 26.167,130.167 26.092,130.167 26.000 C 130.167 25.908,129.912 25.833,129.601 25.833 C 129.252 25.833,128.999 25.738,128.940 25.583 C 128.862 25.382,128.485 25.333,127.000 25.333 C 125.515 25.333,125.138 25.382,125.060 25.583 M233.440 25.583 C 233.365 25.777,233.041 25.833,232.005 25.833 C 231.224 25.833,230.667 25.903,230.667 26.000 C 230.667 26.092,230.292 26.167,229.833 26.167 C 229.375 26.167,229.000 26.242,229.000 26.333 C 229.000 26.425,228.773 26.500,228.495 26.500 C 228.199 26.500,227.950 26.604,227.894 26.750 C 227.834 26.904,227.581 27.000,227.232 27.000 C 226.921 27.000,226.667 27.075,226.667 27.167 C 226.667 27.258,226.479 27.333,226.250 27.333 C 225.991 27.333,225.833 27.428,225.833 27.583 C 225.833 27.739,225.676 27.833,225.417 27.833 C 225.188 27.833,225.000 27.908,225.000 28.000 C 225.000 28.092,224.813 28.167,224.583 28.167 C 224.354 28.167,224.167 28.242,224.167 28.333 C 224.167 28.425,224.058 28.500,223.924 28.500 C 223.791 28.500,223.494 28.688,223.265 28.917 C 223.036 29.146,222.743 29.333,222.614 29.333 C 222.485 29.333,222.239 29.521,222.067 29.750 C 221.895 29.979,221.692 30.167,221.615 30.167 C 221.452 30.167,221.000 30.595,221.000 30.750 C 221.000 30.923,220.539 31.333,220.345 31.333 C 220.247 31.333,220.167 31.414,220.167 31.512 C 220.167 31.729,219.748 32.167,219.540 32.167 C 219.457 32.167,219.289 32.354,219.167 32.583 C 219.044 32.813,218.881 33.000,218.805 33.000 C 218.729 33.000,218.667 33.188,218.667 33.417 C 218.667 33.646,218.586 33.833,218.488 33.833 C 218.200 33.833,217.833 34.283,217.833 34.637 C 217.833 34.817,217.721 35.008,217.583 35.060 C 217.446 35.113,217.333 35.309,217.333 35.495 C 217.333 35.681,217.258 35.833,217.167 35.833 C 217.075 35.833,217.000 35.979,217.000 36.157 C 217.000 36.335,216.925 36.527,216.833 36.583 C 216.742 36.640,216.667 36.824,216.667 36.992 C 216.667 37.160,216.554 37.341,216.417 37.394 C 216.272 37.449,216.167 37.698,216.167 37.985 C 216.167 38.257,216.092 38.527,216.000 38.583 C 215.908 38.640,215.833 38.936,215.833 39.242 C 215.833 39.582,215.736 39.835,215.583 39.894 C 215.403 39.963,215.333 40.246,215.333 40.911 C 215.333 41.418,215.258 41.833,215.167 41.833 C 215.060 41.833,215.000 43.333,215.000 46.000 C 215.000 48.667,215.060 50.167,215.167 50.167 C 215.258 50.167,215.333 50.582,215.333 51.089 C 215.333 51.754,215.403 52.037,215.583 52.106 C 215.753 52.172,215.833 52.437,215.833 52.934 C 215.833 53.337,215.908 53.667,216.000 53.667 C 216.092 53.667,216.167 53.854,216.167 54.083 C 216.167 54.343,216.261 54.500,216.417 54.500 C 216.591 54.500,216.667 54.676,216.667 55.083 C 216.667 55.404,216.742 55.667,216.833 55.667 C 216.925 55.667,217.000 55.827,217.000 56.023 C 217.000 56.218,217.188 56.552,217.417 56.765 C 217.646 56.977,217.833 57.267,217.833 57.409 C 217.833 57.551,217.908 57.667,218.000 57.667 C 218.092 57.667,218.167 57.854,218.167 58.083 C 218.167 58.343,218.261 58.500,218.417 58.500 C 218.554 58.500,218.667 58.596,218.667 58.713 C 218.667 58.830,218.817 59.035,219.000 59.167 C 219.183 59.299,219.333 59.501,219.333 59.615 C 219.333 59.902,222.410 63.000,222.695 63.000 C 222.822 63.000,223.035 63.150,223.167 63.333 C 223.299 63.517,223.503 63.667,223.620 63.667 C 223.737 63.667,223.833 63.779,223.833 63.917 C 223.833 64.065,223.986 64.167,224.210 64.167 C 224.418 64.167,224.728 64.354,224.900 64.583 C 225.073 64.813,225.353 65.000,225.523 65.000 C 225.694 65.000,225.833 65.075,225.833 65.167 C 225.833 65.258,226.021 65.333,226.250 65.333 C 226.479 65.333,226.667 65.408,226.667 65.500 C 226.667 65.592,226.809 65.667,226.982 65.667 C 227.156 65.667,227.341 65.779,227.394 65.917 C 227.446 66.054,227.642 66.167,227.828 66.167 C 228.014 66.167,228.167 66.242,228.167 66.333 C 228.167 66.425,228.421 66.500,228.732 66.500 C 229.081 66.500,229.334 66.596,229.394 66.750 C 229.454 66.907,229.709 67.000,230.078 67.000 C 230.402 67.000,230.667 67.075,230.667 67.167 C 230.667 67.259,231.111 67.333,231.667 67.333 C 232.222 67.333,232.667 67.407,232.667 67.500 C 232.667 67.609,236.444 67.667,243.667 67.667 C 250.889 67.667,254.667 67.609,254.667 67.500 C 254.667 67.408,254.873 67.331,255.125 67.328 C 255.625 67.322,256.167 66.991,256.167 66.690 C 256.167 66.585,256.247 66.500,256.345 66.500 C 256.539 66.500,257.000 66.090,257.000 65.917 C 257.000 65.744,257.461 65.333,257.655 65.333 C 257.753 65.333,257.833 65.146,257.833 64.917 C 257.833 64.688,257.908 64.500,258.000 64.500 C 258.092 64.500,258.167 64.313,258.167 64.083 C 258.167 63.824,258.261 63.667,258.417 63.667 C 258.625 63.667,258.667 63.335,258.667 61.679 C 258.667 60.134,258.611 59.635,258.417 59.440 C 258.279 59.303,258.167 59.035,258.167 58.845 C 258.167 58.655,258.092 58.500,258.000 58.500 C 257.908 58.500,257.833 58.350,257.833 58.167 C 257.833 57.981,257.722 57.833,257.583 57.833 C 257.446 57.833,257.333 57.755,257.333 57.660 C 257.333 57.343,256.031 56.167,255.680 56.167 C 255.489 56.167,255.333 56.092,255.333 56.000 C 255.333 55.908,255.181 55.833,254.995 55.833 C 254.809 55.833,254.613 55.721,254.560 55.583 C 254.477 55.366,253.359 55.333,245.899 55.333 C 240.300 55.333,237.333 55.276,237.333 55.167 C 237.333 55.071,236.833 55.000,236.167 55.000 C 235.241 55.000,235.000 54.948,235.000 54.750 C 235.000 54.575,234.824 54.500,234.417 54.500 C 234.096 54.500,233.833 54.425,233.833 54.333 C 233.833 54.242,233.673 54.167,233.477 54.167 C 233.282 54.167,232.948 53.979,232.735 53.750 C 232.523 53.521,232.233 53.333,232.091 53.333 C 231.949 53.333,231.833 53.194,231.833 53.023 C 231.833 52.853,231.646 52.573,231.417 52.400 C 231.121 52.179,231.000 51.929,231.000 51.544 L 231.000 51.000 243.417 51.000 C 254.343 51.000,255.833 50.970,255.833 50.750 C 255.833 50.575,256.009 50.500,256.417 50.500 C 256.737 50.500,257.000 50.425,257.000 50.333 C 257.000 50.242,257.188 50.167,257.417 50.167 C 257.646 50.167,257.833 50.109,257.833 50.038 C 257.833 49.967,258.096 49.768,258.417 49.595 C 258.799 49.389,259.000 49.160,259.000 48.930 C 259.000 48.737,259.188 48.438,259.417 48.266 C 259.750 48.016,259.833 47.807,259.833 47.227 C 259.833 46.827,259.908 46.500,260.000 46.500 C 260.103 46.500,260.167 45.611,260.167 44.167 C 260.167 42.722,260.103 41.833,260.000 41.833 C 259.907 41.833,259.833 41.389,259.833 40.833 C 259.833 40.056,259.778 39.833,259.583 39.833 C 259.403 39.833,259.333 39.648,259.333 39.167 C 259.333 38.800,259.258 38.500,259.167 38.500 C 259.075 38.500,259.000 38.350,259.000 38.167 C 259.000 37.983,258.925 37.833,258.833 37.833 C 258.742 37.833,258.667 37.626,258.667 37.373 C 258.667 37.114,258.485 36.718,258.250 36.464 C 258.021 36.217,257.833 35.861,257.833 35.674 C 257.833 35.482,257.724 35.333,257.583 35.333 C 257.446 35.333,257.333 35.197,257.333 35.031 C 257.333 34.865,257.183 34.569,257.000 34.372 C 256.817 34.175,256.667 33.937,256.667 33.843 C 256.667 33.562,253.217 30.167,252.931 30.167 C 252.786 30.167,252.667 30.092,252.667 30.000 C 252.667 29.908,252.554 29.833,252.417 29.833 C 252.279 29.833,252.167 29.753,252.167 29.655 C 252.167 29.366,251.717 29.000,251.363 29.000 C 251.183 29.000,250.992 28.887,250.940 28.750 C 250.887 28.613,250.691 28.500,250.505 28.500 C 250.319 28.500,250.167 28.425,250.167 28.333 C 250.167 28.242,249.979 28.167,249.750 28.167 C 249.521 28.167,249.333 28.092,249.333 28.000 C 249.333 27.908,249.191 27.833,249.018 27.833 C 248.844 27.833,248.659 27.721,248.606 27.583 C 248.554 27.446,248.358 27.333,248.172 27.333 C 247.986 27.333,247.833 27.258,247.833 27.167 C 247.833 27.075,247.603 27.000,247.321 27.000 C 247.040 27.000,246.697 26.887,246.560 26.750 C 246.422 26.613,246.090 26.500,245.821 26.500 C 245.553 26.500,245.333 26.425,245.333 26.333 C 245.333 26.241,244.889 26.167,244.333 26.167 C 243.778 26.167,243.333 26.093,243.333 26.000 C 243.333 25.903,242.784 25.833,242.018 25.833 C 241.002 25.833,240.680 25.776,240.606 25.583 C 240.525 25.372,239.969 25.333,237.023 25.333 C 234.077 25.333,233.521 25.372,233.440 25.583 M280.227 26.750 C 280.157 26.933,279.868 27.000,279.149 27.000 C 278.605 27.000,278.167 27.074,278.167 27.167 C 278.167 27.258,277.904 27.333,277.583 27.333 C 277.176 27.333,277.000 27.409,277.000 27.583 C 277.000 27.758,276.824 27.833,276.417 27.833 C 276.096 27.833,275.833 27.908,275.833 28.000 C 275.833 28.092,275.646 28.167,275.417 28.167 C 275.188 28.167,275.000 28.234,275.000 28.315 C 275.000 28.397,274.813 28.511,274.583 28.568 C 274.354 28.626,274.167 28.747,274.167 28.837 C 274.167 28.926,274.017 29.000,273.833 29.000 C 273.650 29.000,273.500 29.075,273.500 29.167 C 273.500 29.258,273.387 29.333,273.250 29.333 C 273.112 29.333,273.000 29.446,273.000 29.583 C 273.000 29.726,272.850 29.833,272.653 29.833 C 272.462 29.833,272.051 30.096,271.739 30.417 C 271.427 30.738,271.090 31.000,270.989 31.000 C 270.750 31.000,267.833 33.917,267.833 34.156 C 267.833 34.257,267.571 34.594,267.250 34.906 C 266.929 35.217,266.667 35.628,266.667 35.819 C 266.667 36.017,266.559 36.167,266.417 36.167 C 266.276 36.167,266.167 36.316,266.167 36.508 C 266.167 36.695,265.979 37.036,265.750 37.265 C 265.521 37.494,265.333 37.791,265.333 37.924 C 265.333 38.058,265.258 38.167,265.167 38.167 C 265.075 38.167,265.000 38.429,265.000 38.750 C 265.000 39.071,264.925 39.333,264.833 39.333 C 264.742 39.333,264.667 39.596,264.667 39.917 C 264.667 40.324,264.591 40.500,264.417 40.500 C 264.236 40.500,264.167 40.685,264.167 41.167 C 264.167 41.533,264.092 41.833,264.000 41.833 C 263.908 41.833,263.833 42.272,263.833 42.816 C 263.833 43.535,263.766 43.823,263.583 43.894 C 263.365 43.977,263.333 45.172,263.333 53.245 C 263.333 61.361,263.364 62.500,263.583 62.500 C 263.758 62.500,263.833 62.676,263.833 63.083 C 263.833 63.404,263.908 63.667,264.000 63.667 C 264.092 63.667,264.167 63.854,264.167 64.083 C 264.167 64.343,264.261 64.500,264.417 64.500 C 264.557 64.500,264.667 64.649,264.667 64.840 C 264.667 65.286,265.876 66.500,266.320 66.500 C 266.511 66.500,266.667 66.580,266.667 66.679 C 266.667 67.017,267.144 67.333,267.655 67.333 C 267.936 67.333,268.167 67.408,268.167 67.500 C 268.167 67.603,269.083 67.667,270.583 67.667 C 272.083 67.667,273.000 67.603,273.000 67.500 C 273.000 67.408,273.235 67.333,273.523 67.333 C 273.866 67.333,274.178 67.190,274.431 66.917 C 274.644 66.688,274.933 66.500,275.075 66.500 C 275.217 66.500,275.333 66.425,275.333 66.333 C 275.333 66.242,275.446 66.167,275.583 66.167 C 275.721 66.167,275.833 66.088,275.833 65.992 C 275.833 65.897,276.021 65.631,276.250 65.402 C 276.479 65.172,276.667 64.892,276.667 64.779 C 276.667 64.666,276.817 64.465,277.000 64.333 C 277.213 64.180,277.333 63.902,277.333 63.564 C 277.333 63.248,277.434 62.997,277.583 62.940 C 277.801 62.856,277.833 61.764,277.833 54.505 C 277.833 49.057,277.891 46.167,278.000 46.167 C 278.092 46.167,278.167 45.904,278.167 45.583 C 278.167 45.262,278.240 45.000,278.330 45.000 C 278.420 45.000,278.541 44.813,278.598 44.583 C 278.656 44.354,278.770 44.167,278.851 44.167 C 278.933 44.167,279.000 44.011,279.000 43.821 C 279.000 43.452,279.361 43.000,279.655 43.000 C 279.753 43.000,279.833 42.920,279.833 42.821 C 279.833 42.591,280.257 42.167,280.488 42.167 C 280.586 42.167,280.667 42.092,280.667 42.000 C 280.667 41.908,280.817 41.833,281.000 41.833 C 281.185 41.833,281.333 41.722,281.333 41.583 C 281.333 41.409,281.509 41.333,281.917 41.333 C 282.237 41.333,282.500 41.258,282.500 41.167 C 282.500 41.058,284.807 41.000,289.089 41.000 C 294.791 41.000,295.690 40.966,295.773 40.750 C 295.832 40.596,296.086 40.500,296.434 40.500 C 296.746 40.500,297.000 40.425,297.000 40.333 C 297.000 40.242,297.188 40.167,297.417 40.167 C 297.646 40.167,297.833 40.092,297.833 40.000 C 297.833 39.908,297.956 39.833,298.107 39.833 C 298.400 39.833,299.333 38.947,299.333 38.668 C 299.333 38.576,299.427 38.499,299.542 38.498 C 299.978 38.495,301.000 36.906,301.000 36.231 C 301.000 36.012,301.075 35.833,301.167 35.833 C 301.269 35.833,301.333 35.056,301.333 33.833 C 301.333 32.611,301.269 31.833,301.167 31.833 C 301.075 31.833,301.000 31.575,301.000 31.260 C 301.000 30.944,300.925 30.640,300.833 30.583 C 300.742 30.527,300.667 30.335,300.667 30.157 C 300.667 29.979,300.554 29.833,300.417 29.833 C 300.275 29.833,300.167 29.684,300.167 29.488 C 300.167 29.119,299.806 28.667,299.512 28.667 C 299.414 28.667,299.333 28.586,299.333 28.488 C 299.333 28.194,298.881 27.833,298.512 27.833 C 298.322 27.833,298.167 27.753,298.167 27.655 C 298.167 27.334,297.700 27.000,297.250 27.000 C 297.008 27.000,296.697 26.887,296.560 26.750 C 296.344 26.535,295.199 26.500,288.316 26.500 C 281.365 26.500,280.310 26.533,280.227 26.750 M240.167 37.167 C 240.167 37.258,240.421 37.333,240.732 37.333 C 241.081 37.333,241.334 37.429,241.394 37.583 C 241.446 37.721,241.637 37.833,241.818 37.833 C 241.999 37.833,242.193 37.908,242.250 38.000 C 242.307 38.092,242.461 38.167,242.593 38.167 C 242.914 38.167,244.167 39.432,244.167 39.755 C 244.167 39.896,244.279 40.054,244.417 40.106 C 244.554 40.159,244.667 40.382,244.667 40.601 L 244.667 41.000 237.833 41.000 L 231.000 41.000 231.000 40.583 C 231.000 40.354,231.075 40.167,231.167 40.167 C 231.258 40.167,231.333 39.979,231.333 39.750 C 231.333 39.521,231.414 39.333,231.512 39.333 C 231.743 39.333,232.167 38.909,232.167 38.679 C 232.167 38.580,232.279 38.500,232.417 38.500 C 232.554 38.500,232.667 38.425,232.667 38.333 C 232.667 38.242,232.817 38.167,233.000 38.167 C 233.183 38.167,233.333 38.092,233.333 38.000 C 233.333 37.908,233.521 37.833,233.750 37.833 C 234.009 37.833,234.167 37.739,234.167 37.583 C 234.167 37.409,234.343 37.333,234.750 37.333 C 235.071 37.333,235.333 37.258,235.333 37.167 C 235.333 37.063,236.250 37.000,237.750 37.000 C 239.250 37.000,240.167 37.063,240.167 37.167 " stroke="none" fill="#04ccfc" fill-rule="evenodd"></path><path id="path1" d="" stroke="none" fill="#08ccfc" fill-rule="evenodd"></path><path id="path2" d="" stroke="none" fill="#08ccfc" fill-rule="evenodd"></path><path id="path3" d="" stroke="none" fill="#08ccfc" fill-rule="evenodd"></path><path id="path4" d="" stroke="none" fill="#08ccfc" fill-rule="evenodd"></path></g></svg>